<?xml version="1.0" encoding="UTF-8"?>
<svg width="30px" height="52px" viewBox="0 0 30 52" version="1.1" xmlns="http://www.w3.org/2000/svg" xmlns:xlink="http://www.w3.org/1999/xlink">
    <!-- Generator: Sketch 42 (36781) - http://www.bohemiancoding.com/sketch -->
    <title>Page 1</title>
    <desc>Created with Sketch.</desc>
    <defs></defs>
    <g id="Page-1" stroke="none" stroke-width="1" fill="none" fill-rule="evenodd">
        <g id="Results" transform="translate(-57.000000, -341.000000)" fill="#FFFFFF">
            <g id="bottom-results" transform="translate(0.000000, 318.000000)">
                <g id="green-results" transform="translate(23.000000, 0.000000)">
                    <g id="Green-Bulb-Square" transform="translate(9.000000, 10.000000)">
                        <g id="Page-1" transform="translate(25.000000, 13.000000)">
                            <path d="M9.91266037,50.16897 C9.91266037,50.6756147 10.3206949,51.0859375 10.8235721,51.0859375 L18.3515556,51.0859375 C18.8544328,51.0859375 19.2624673,50.6756147 19.2624673,50.16897 C19.2624673,49.6623253 18.8544328,49.2520025 18.3515556,49.2520025 L10.8235721,49.2520025 C10.3206949,49.2520025 9.91266037,49.6623253 9.91266037,50.16897" id="Fill-1"></path>
                            <path d="M8.32760653,42.9622673 C8.37945389,43.4659418 8.82711157,43.832559 9.32745966,43.780367 L20.034993,42.5595824 C20.535341,42.5073903 20.8991156,42.0567566 20.8476898,41.5526579 C20.7958424,41.0489834 20.3481847,40.6827905 19.8474151,40.7349825 L9.13988181,41.9557671 C8.63953373,42.0079592 8.27575918,42.4585929 8.32760653,42.9622673" id="Fill-3"></path>
                            <path d="M8.32760653,46.8358928 C8.37945389,47.3395672 8.82711157,47.7057602 9.32745966,47.6539925 L20.034993,46.4327835 C20.535341,46.3810158 20.8991156,45.9303821 20.8476898,45.4262833 C20.7958424,44.9226089 20.3481847,44.556416 19.8474151,44.6081837 L9.13988181,45.8293926 C8.63953373,45.8811603 8.27575918,46.3322184 8.32760653,46.8358928" id="Fill-5"></path>
                            <path d="M20.97617,19.0446487 C20.9002959,19.2228654 20.7599286,19.3607712 20.5812028,19.4329065 C20.2208004,19.5788745 19.7874745,19.3921713 19.6433136,19.0276756 L19.161934,17.8162262 L17.528953,21.9258191 C17.419357,22.2029037 17.1559049,22.3823934 16.8591526,22.3823934 C16.5624002,22.3823934 16.2993697,22.2029037 16.1893521,21.9253948 L14.5567926,17.8162262 L12.9233901,21.9258191 C12.8137941,22.2029037 12.5507636,22.3823934 12.2540112,22.3823934 C11.9568373,22.3823934 11.6938068,22.2029037 11.5837892,21.9253948 L9.95122974,17.8162262 L9.46985021,19.0285243 C9.32526774,19.3921713 8.89404946,19.5801475 8.53153948,19.4329065 C8.16312817,19.2843926 7.98271622,18.8609157 8.12982783,18.4892065 L9.28142932,15.5914873 C9.39144688,15.3144028 9.65447738,15.1353374 9.95122974,15.1353374 C10.2479821,15.1353374 10.5110126,15.3144028 10.6210302,15.5919117 L12.2540112,19.7010803 L13.8869922,15.5914873 C13.9965883,15.3144028 14.2596188,15.1353374 14.5567926,15.1353374 C14.853545,15.1353374 15.1165755,15.3144028 15.2261715,15.5919117 L16.8591526,19.7010803 L18.4921336,15.5914873 C18.6021512,15.3144028 18.8651817,15.1353374 19.161934,15.1353374 C19.4586864,15.1353374 19.7217169,15.3144028 19.8317344,15.5919117 L20.9829144,18.4892065 C21.0545734,18.6691205 21.0520442,18.8664319 20.97617,19.0446487 M14.5875638,0.520716874 C6.54110675,0.520716874 0.0184561587,7.0684844 0.0184561587,15.1455212 C0.0184561587,16.2895029 0.153765118,17.4008115 0.400777736,18.4692632 C1.26447885,22.5050235 4.94479824,28.2881564 6.68442465,32.1473972 C8.1129669,35.3158361 8.23015036,38.7431135 8.23015036,38.7431135 L20.9449773,38.7431135 C20.9449773,38.7431135 21.0617393,35.3158361 22.4902815,32.1473972 C24.2299079,28.2881564 27.9102273,22.5113884 28.7739284,18.4756281 C29.0213626,17.4076007 29.15625,16.2928975 29.15625,15.1489158 C29.15625,7.071879 22.6335994,0.520716874 14.5875638,0.520716874" id="Fill-7"></path>
                        </g>
                    </g>
                </g>
            </g>
        </g>
    </g>
</svg>