<?xml version="1.0" encoding="utf-8"?>
<!-- Generator: Adobe Illustrator 21.0.0, SVG Export Plug-In . SVG Version: 6.00 Build 0)  -->
<svg class="logo" version="1.1" xmlns="http://www.w3.org/2000/svg" xmlns:xlink="http://www.w3.org/1999/xlink" x="0px" y="0px" width="150px"
	 height="150px" viewBox="0 0 600 600" enable-background="new 0 0 600 600" xml:space="preserve">
<g id="BG_Red" display="none">
	<rect display="inline" fill="#CC0000" width="600" height="600"/>
</g>
<g id="BG_Black" display="none">
	<rect display="inline" width="600" height="600"/>
</g>
<g id="O3_Labs_Bot" display="none">
	<path display="inline" fill="#FFFFFF" d="M192,171v216h216V171H192z M326.4,197.3c1.9,0,3.4,1.5,3.4,3.4c0,1.9-1.5,3.4-3.4,3.4
		c-1.9,0-3.4-1.5-3.4-3.4C323,198.8,324.5,197.3,326.4,197.3z M310,193.9c0-1.9,1.1-3.4,3-3.4s3,1.5,3,3.4v13.4c0,1.9-1.1,3.4-3,3.4
		s-3-1.5-3-3.4V193.9z M296,187.2c0-1.9,1.6-3.4,3.5-3.4c1.9,0,3.5,1.5,3.5,3.4v26.9c0,1.9-1.6,3.4-3.5,3.4c-1.9,0-3.5-1.5-3.5-3.4
		V187.2z M283,193.9c0-1.9,1.1-3.4,3-3.4c1.9,0,3,1.5,3,3.4v13.4c0,1.9-1.1,3.4-3,3.4c-1.9,0-3-1.5-3-3.4V193.9z M272.6,197.3
		c1.9,0,3.4,1.5,3.4,3.4c0,1.9-1.5,3.4-3.4,3.4s-3.4-1.5-3.4-3.4C269.3,198.8,270.8,197.3,272.6,197.3z M267.1,358h-55.4
		c0,0,0-0.2,0-0.3c0-15.3,12.4-27.7,27.7-27.7s27.7,12.5,27.7,27.7C267.1,357.8,267.1,358,267.1,358z M299.7,330.9
		c-28.6,0-51.9-23.3-51.9-51.9s23.3-51.9,51.9-51.9s51.9,23.3,51.9,51.9S328.4,330.9,299.7,330.9z M366.8,358c-6.2,0-11.9-3-12.1-11
		h6.9c0.1,3,2.4,4.8,5.1,4.8c3,0,5.1-2,5.1-5.4c0-3.1-1.9-5.4-5.3-5.4H366v-6h0.6c3.3,0,4.8-2,4.8-4.6c0-3.2-2.1-4.9-4.6-4.9
		c-2.6,0-4.5,1.5-4.7,4.5h-6.9c0.2-7,5.2-10.7,11.6-10.7c6.7,0,11.5,4.5,11.5,10.9c0,4.1-1.9,6.4-4.4,7.8c2.7,1.4,4.9,4.1,4.9,8.7
		C378.8,354.2,373.3,358,366.8,358z"/>
	<path display="inline" fill="#FFFFFF" d="M238.6,339.9c-0.4-0.7-1.1-1.3-2-1s-1.1,1.1-1,2c0,0,0.8,7.5,0.9,7.9
		c0.5,1.6,2.3,2.5,3.9,2s2.5-2.3,2-3.9C242.3,346.4,238.6,339.9,238.6,339.9z"/>
	<path display="inline" fill="#FFFFFF" d="M299.7,248c-17.1,0-31,13.9-31,31c0,17.1,13.9,31,31,31c17.1,0,31-13.9,31-31
		C330.8,261.9,316.8,248,299.7,248z M299.5,288.3c-5.1,0-9.3-4.2-9.3-9.3s4.2-9.3,9.3-9.3s9.3,4.2,9.3,9.3S304.6,288.3,299.5,288.3z
		 M313.3,269.1c-2,0-3.6-1.6-3.6-3.6c0-2,1.6-3.6,3.6-3.6s3.6,1.6,3.6,3.6C316.9,267.4,315.3,269.1,313.3,269.1z"/>
	<g display="inline">
		<path fill="#FFFFFF" d="M306.4,150.3L306.4,150.3c-0.4,0-0.7-0.2-0.8-0.6l-6.1-15.2l-6.1,15.2c-0.1,0.3-0.5,0.6-0.8,0.6l0,0
			c-0.4,0-0.7-0.2-0.8-0.6l-6.1-15.2l-2.6,6.6c-0.2,0.5-0.7,0.7-1.2,0.5c-0.5-0.2-0.7-0.7-0.5-1.2l3.5-8.6c0.1-0.3,0.5-0.6,0.8-0.6
			c0.4,0,0.7,0.2,0.8,0.6l6.1,15.2l6.1-15.2c0.1-0.3,0.5-0.6,0.8-0.6l0,0c0.4,0,0.7,0.2,0.8,0.6l6.1,15.2l6.1-15.2
			c0.1-0.3,0.5-0.6,0.8-0.6l0,0c0.4,0,0.7,0.2,0.8,0.6l3.5,8.6c0.2,0.5,0,1-0.5,1.2c-0.5,0.2-1,0-1.2-0.5l-2.6-6.6l-6.1,15.2
			C307.1,150.1,306.8,150.3,306.4,150.3z"/>
		<g>
			<g>
				<polygon fill="#FFFFFF" points="321.5,174.5 313.4,171.6 325,145.9 329.1,147.4 				"/>
				<circle fill="#FFFFFF" cx="329.1" cy="142.1" r="6.5"/>
			</g>
			<g>
				<polygon fill="#FFFFFF" points="277.5,174.5 285.6,171.6 274,145.9 269.9,147.4 				"/>
				<circle fill="#FFFFFF" cx="269.9" cy="142.1" r="6.5"/>
			</g>
		</g>
	</g>
	<g display="inline">
		<g>

				<ellipse transform="matrix(0.1746 -0.9846 0.9846 0.1746 -150.0298 578.8987)" fill="#FFFFFF" cx="270.3" cy="378.9" rx="20.4" ry="20.4"/>
			<polygon fill="#FFFFFF" points="266.8,417.3 260.4,416.2 260.7,394.6 273.6,396.9 			"/>
			<path fill="#FFFFFF" d="M237.7,467.5c0,0-2.8-17.8,10.4-46.9h30c13.2,29.1,10.4,46.9,10.4,46.9H237.7z"/>
			<circle fill="#FFFFFF" cx="263.1" cy="422.1" r="10.7"/>
			<path fill="#FFFFFF" d="M286.1,459.3c-7.1-2.7-15.6-4.3-24.7-4.3c-16.2,0-30.4,5-38.8,12.5h63.4V459.3z"/>
		</g>
		<g>

				<ellipse transform="matrix(0.9846 -0.1746 0.1746 0.9846 -61.1089 63.2119)" fill="#FFFFFF" cx="328.7" cy="378.9" rx="20.4" ry="20.4"/>
			<polygon fill="#FFFFFF" points="332.2,417.3 338.6,416.2 338.3,394.6 325.4,396.9 			"/>
			<path fill="#FFFFFF" d="M361.3,467.5c0,0,2.8-17.8-10.4-46.9h-30c-13.2,29.1-10.4,46.9-10.4,46.9H361.3z"/>
			<circle fill="#FFFFFF" cx="335.9" cy="422.1" r="10.7"/>
			<path fill="#FFFFFF" d="M312.9,459.3c7.1-2.7,15.6-4.3,24.7-4.3c16.2,0,30.4,5,38.8,12.5h-63.4V459.3z"/>
		</g>
	</g>
	<g display="inline">
		<g>

				<ellipse transform="matrix(0.7836 -0.6213 0.6213 0.7836 -131.4295 179.3688)" fill="#FFFFFF" cx="191.7" cy="278.3" rx="20.4" ry="20.4"/>
			<polygon fill="#FFFFFF" points="144.2,320.2 140.2,315.1 174.1,283.7 182.3,294 			"/>
		</g>
		<g>

				<ellipse transform="matrix(0.2331 -0.9724 0.9724 0.2331 -198.645 383.1223)" fill="#FFFFFF" cx="143.6" cy="317.5" rx="8.7" ry="8.7"/>

				<ellipse transform="matrix(0.7494 -0.6621 0.6621 0.7494 -238.982 200.8217)" fill="#FFFFFF" cx="145.8" cy="416.1" rx="4.1" ry="4.1"/>

				<ellipse transform="matrix(0.7494 -0.6621 0.6621 0.7494 -246.2612 177.2901)" fill="#FFFFFF" cx="111.1" cy="414" rx="4.1" ry="4.1"/>
			<polygon fill="#FFFFFF" points="158.1,405.3 136,386.5 148.3,375.6 164.3,399.9 			"/>

				<rect x="149.4" y="399.1" transform="matrix(-0.6621 -0.7494 0.7494 -0.6621 -51.6394 795.423)" fill="#FFFFFF" width="8.2" height="20.5"/>

				<rect x="94.1" y="402.2" transform="matrix(-0.6621 -0.7494 0.7494 -0.6621 -131.1301 753.4926)" fill="#FFFFFF" width="20.5" height="8.2"/>
			<polygon fill="#FFFFFF" points="94.8,395.6 100.2,401.7 124.5,385.8 113.6,373.5 			"/>

				<ellipse transform="matrix(0.7494 -0.6621 0.6621 0.7494 -226.1441 207.5935)" fill="#FFFFFF" cx="161.2" cy="402.6" rx="8.2" ry="8.2"/>

				<ellipse transform="matrix(0.7494 -0.6621 0.6621 0.7494 -239.4894 164.4522)" fill="#FFFFFF" cx="97.5" cy="398.6" rx="8.2" ry="8.2"/>
			<path fill="#FFFFFF" d="M154.8,322l-23.3-5.6c-12.9,22.4-18.3,39.8-20.3,48.3l0.1,0c-1.2,6.1,0.3,12.6,4.7,17.6
				c7.5,8.5,20.5,9.1,28.9,1.6c3.1-2.7,5.1-6,6.2-10h0c0,0,0,0.1,0,0.1c0.2-0.8,0.4-1.4,0.5-2.2C153.6,362.6,156,345.7,154.8,322z
				 M138.1,376.4c-4.2,3.7-10.7,3.3-14.5-0.9c-3.7-4.2-3.3-10.7,0.9-14.5c4.2-3.7,10.7-3.3,14.5,0.9
				C142.8,366.2,142.4,372.7,138.1,376.4z"/>

				<ellipse transform="matrix(0.7494 -0.6621 0.6621 0.7494 -211.2461 179.3502)" fill="#FFFFFF" cx="131.3" cy="368.8" rx="3.6" ry="3.6"/>
		</g>
	</g>
	<g display="inline">
		<g>

				<ellipse transform="matrix(0.6213 -0.7836 0.7836 0.6213 -63.868 424.5224)" fill="#FFFFFF" cx="407.3" cy="278.3" rx="20.4" ry="20.4"/>
			<polygon fill="#FFFFFF" points="454.8,320.2 458.8,315.1 424.9,283.7 416.7,294 			"/>
		</g>
		<g>

				<ellipse transform="matrix(0.9724 -0.2331 0.2331 0.9724 -61.4702 114.9142)" fill="#FFFFFF" cx="455.4" cy="317.5" rx="8.7" ry="8.7"/>

				<ellipse transform="matrix(0.6621 -0.7494 0.7494 0.6621 -158.733 480.2419)" fill="#FFFFFF" cx="453.2" cy="416.1" rx="4.1" ry="4.1"/>

				<ellipse transform="matrix(0.6621 -0.7494 0.7494 0.6621 -145.3875 505.5421)" fill="#FFFFFF" cx="487.9" cy="414" rx="4.1" ry="4.1"/>
			<polygon fill="#FFFFFF" points="440.9,405.3 463,386.5 450.7,375.6 434.7,399.9 			"/>

				<rect x="441.4" y="399.1" transform="matrix(0.6621 -0.7494 0.7494 0.6621 -156.2425 472.1907)" fill="#FFFFFF" width="8.2" height="20.5"/>

				<rect x="484.4" y="402.2" transform="matrix(0.6621 -0.7494 0.7494 0.6621 -137.3363 508.0327)" fill="#FFFFFF" width="20.5" height="8.2"/>
			<polygon fill="#FFFFFF" points="504.2,395.6 498.8,401.7 474.5,385.8 485.4,373.5 			"/>

				<ellipse transform="matrix(0.6621 -0.7494 0.7494 0.6621 -153.752 464.1395)" fill="#FFFFFF" cx="437.8" cy="402.6" rx="8.2" ry="8.2"/>

				<ellipse transform="matrix(0.6621 -0.7494 0.7494 0.6621 -129.2851 510.5232)" fill="#FFFFFF" cx="501.5" cy="398.6" rx="8.2" ry="8.2"/>
			<path fill="#FFFFFF" d="M487.8,364.8L487.8,364.8c-2-8.6-7.4-25.9-20.3-48.3l-23.3,5.6c-1.2,23.7,1.3,40.7,3.2,49.9
				c0.1,0.8,0.3,1.4,0.5,2.1c0,0,0-0.1,0-0.1h0c1,4,3.1,7.3,6.2,10c8.5,7.5,21.4,6.8,28.9-1.7C487.4,377.3,489,370.8,487.8,364.8z
				 M475.4,375.5c-3.7,4.2-10.2,4.6-14.5,0.9c-4.2-3.7-4.6-10.2-0.9-14.5c3.7-4.2,10.2-4.6,14.5-0.9
				C478.7,364.8,479.1,371.3,475.4,375.5z"/>

				<ellipse transform="matrix(0.6621 -0.7494 0.7494 0.6621 -118.3267 475.0979)" fill="#FFFFFF" cx="467.7" cy="368.8" rx="3.6" ry="3.6"/>
		</g>
	</g>
</g>
<g id="O3_Labs_Bot_-_Theme_Music" display="none">
	<path display="inline" fill="#FFFFFF" d="M192,171v216h216V171H192z M326.4,197.3c1.9,0,3.4,1.5,3.4,3.4c0,1.9-1.5,3.4-3.4,3.4
		c-1.9,0-3.4-1.5-3.4-3.4C323,198.8,324.5,197.3,326.4,197.3z M310,193.9c0-1.9,1.1-3.4,3-3.4s3,1.5,3,3.4v13.4c0,1.9-1.1,3.4-3,3.4
		s-3-1.5-3-3.4V193.9z M296,187.2c0-1.9,1.6-3.4,3.5-3.4c1.9,0,3.5,1.5,3.5,3.4v26.9c0,1.9-1.6,3.4-3.5,3.4c-1.9,0-3.5-1.5-3.5-3.4
		V187.2z M283,193.9c0-1.9,1.1-3.4,3-3.4c1.9,0,3,1.5,3,3.4v13.4c0,1.9-1.1,3.4-3,3.4c-1.9,0-3-1.5-3-3.4V193.9z M272.6,197.3
		c1.9,0,3.4,1.5,3.4,3.4c0,1.9-1.5,3.4-3.4,3.4s-3.4-1.5-3.4-3.4C269.3,198.8,270.8,197.3,272.6,197.3z M267.1,358h-55.4
		c0,0,0-0.2,0-0.3c0-15.3,12.4-27.7,27.7-27.7s27.7,12.5,27.7,27.7C267.1,357.8,267.1,358,267.1,358z M299.7,330.9
		c-28.6,0-51.9-23.3-51.9-51.9s23.3-51.9,51.9-51.9s51.9,23.3,51.9,51.9S328.4,330.9,299.7,330.9z M366.8,358c-6.2,0-11.9-3-12.1-11
		h6.9c0.1,3,2.4,4.8,5.1,4.8c3,0,5.1-2,5.1-5.4c0-3.1-1.9-5.4-5.3-5.4H366v-6h0.6c3.3,0,4.8-2,4.8-4.6c0-3.2-2.1-4.9-4.6-4.9
		c-2.6,0-4.5,1.5-4.7,4.5h-6.9c0.2-7,5.2-10.7,11.6-10.7c6.7,0,11.5,4.5,11.5,10.9c0,4.1-1.9,6.4-4.4,7.8c2.7,1.4,4.9,4.1,4.9,8.7
		C378.8,354.2,373.3,358,366.8,358z"/>
	<path display="inline" fill="#FFFFFF" d="M238.6,339.9c-0.4-0.7-1.1-1.3-2-1s-1.1,1.1-1,2c0,0,0.8,7.5,0.9,7.9
		c0.5,1.6,2.3,2.5,3.9,2s2.5-2.3,2-3.9C242.3,346.4,238.6,339.9,238.6,339.9z"/>
	<path display="inline" fill="#FFFFFF" d="M299.7,248c-17.1,0-31,13.9-31,31c0,17.1,13.9,31,31,31c17.1,0,31-13.9,31-31
		C330.8,261.9,316.8,248,299.7,248z M299.5,288.3c-5.1,0-9.3-4.2-9.3-9.3s4.2-9.3,9.3-9.3s9.3,4.2,9.3,9.3S304.6,288.3,299.5,288.3z
		 M313.3,269.1c-2,0-3.6-1.6-3.6-3.6c0-2,1.6-3.6,3.6-3.6s3.6,1.6,3.6,3.6C316.9,267.4,315.3,269.1,313.3,269.1z"/>
	<g display="inline">
		<path fill="#FFFFFF" d="M306.4,150.3L306.4,150.3c-0.4,0-0.7-0.2-0.8-0.6l-6.1-15.2l-6.1,15.2c-0.1,0.3-0.5,0.6-0.8,0.6l0,0
			c-0.4,0-0.7-0.2-0.8-0.6l-6.1-15.2l-2.6,6.6c-0.2,0.5-0.7,0.7-1.2,0.5c-0.5-0.2-0.7-0.7-0.5-1.2l3.5-8.6c0.1-0.3,0.5-0.6,0.8-0.6
			c0.4,0,0.7,0.2,0.8,0.6l6.1,15.2l6.1-15.2c0.1-0.3,0.5-0.6,0.8-0.6l0,0c0.4,0,0.7,0.2,0.8,0.6l6.1,15.2l6.1-15.2
			c0.1-0.3,0.5-0.6,0.8-0.6l0,0c0.4,0,0.7,0.2,0.8,0.6l3.5,8.6c0.2,0.5,0,1-0.5,1.2c-0.5,0.2-1,0-1.2-0.5l-2.6-6.6l-6.1,15.2
			C307.1,150.1,306.8,150.3,306.4,150.3z"/>
		<g>
			<g>
				<polygon fill="#FFFFFF" points="321.5,174.5 313.4,171.6 325,145.9 329.1,147.4 				"/>
				<circle fill="#FFFFFF" cx="329.1" cy="142.1" r="6.5"/>
			</g>
			<g>
				<polygon fill="#FFFFFF" points="277.5,174.5 285.6,171.6 274,145.9 269.9,147.4 				"/>
				<circle fill="#FFFFFF" cx="269.9" cy="142.1" r="6.5"/>
			</g>
		</g>
	</g>
	<g display="inline">
		<g>

				<ellipse transform="matrix(0.1746 -0.9846 0.9846 0.1746 -150.0298 578.8987)" fill="#FFFFFF" cx="270.3" cy="378.9" rx="20.4" ry="20.4"/>
			<polygon fill="#FFFFFF" points="266.8,417.3 260.4,416.2 260.7,394.6 273.6,396.9 			"/>
			<path fill="#FFFFFF" d="M237.7,467.5c0,0-2.8-17.8,10.4-46.9h30c13.2,29.1,10.4,46.9,10.4,46.9H237.7z"/>
			<circle fill="#FFFFFF" cx="263.1" cy="422.1" r="10.7"/>
			<path fill="#FFFFFF" d="M286.1,459.3c-7.1-2.7-15.6-4.3-24.7-4.3c-16.2,0-30.4,5-38.8,12.5h63.4V459.3z"/>
		</g>
		<g>

				<ellipse transform="matrix(0.9846 -0.1746 0.1746 0.9846 -61.1089 63.2119)" fill="#FFFFFF" cx="328.7" cy="378.9" rx="20.4" ry="20.4"/>
			<polygon fill="#FFFFFF" points="332.2,417.3 338.6,416.2 338.3,394.6 325.4,396.9 			"/>
			<path fill="#FFFFFF" d="M361.3,467.5c0,0,2.8-17.8-10.4-46.9h-30c-13.2,29.1-10.4,46.9-10.4,46.9H361.3z"/>
			<circle fill="#FFFFFF" cx="335.9" cy="422.1" r="10.7"/>
			<path fill="#FFFFFF" d="M312.9,459.3c7.1-2.7,15.6-4.3,24.7-4.3c16.2,0,30.4,5,38.8,12.5h-63.4V459.3z"/>
		</g>
	</g>
	<g display="inline">
		<g>

				<ellipse transform="matrix(0.6213 -0.7836 0.7836 0.6213 -63.868 424.5224)" fill="#FFFFFF" cx="407.3" cy="278.3" rx="20.4" ry="20.4"/>
			<polygon fill="#FFFFFF" points="454.8,320.2 458.8,315.1 424.9,283.7 416.7,294 			"/>
		</g>
		<g>

				<ellipse transform="matrix(0.9724 -0.2331 0.2331 0.9724 -61.4702 114.9142)" fill="#FFFFFF" cx="455.4" cy="317.5" rx="8.7" ry="8.7"/>

				<ellipse transform="matrix(0.6621 -0.7494 0.7494 0.6621 -158.733 480.2419)" fill="#FFFFFF" cx="453.2" cy="416.1" rx="4.1" ry="4.1"/>

				<ellipse transform="matrix(0.6621 -0.7494 0.7494 0.6621 -145.3875 505.5421)" fill="#FFFFFF" cx="487.9" cy="414" rx="4.1" ry="4.1"/>
			<polygon fill="#FFFFFF" points="440.9,405.3 463,386.5 450.7,375.6 434.7,399.9 			"/>

				<rect x="441.4" y="399.1" transform="matrix(0.6621 -0.7494 0.7494 0.6621 -156.2425 472.1907)" fill="#FFFFFF" width="8.2" height="20.5"/>

				<rect x="484.4" y="402.2" transform="matrix(0.6621 -0.7494 0.7494 0.6621 -137.3363 508.0327)" fill="#FFFFFF" width="20.5" height="8.2"/>
			<polygon fill="#FFFFFF" points="504.2,395.6 498.8,401.7 474.5,385.8 485.4,373.5 			"/>

				<ellipse transform="matrix(0.6621 -0.7494 0.7494 0.6621 -153.752 464.1395)" fill="#FFFFFF" cx="437.8" cy="402.6" rx="8.2" ry="8.2"/>

				<ellipse transform="matrix(0.6621 -0.7494 0.7494 0.6621 -129.2851 510.5232)" fill="#FFFFFF" cx="501.5" cy="398.6" rx="8.2" ry="8.2"/>
			<path fill="#FFFFFF" d="M487.8,364.8L487.8,364.8c-2-8.6-7.4-25.9-20.3-48.3l-23.3,5.6c-1.2,23.7,1.3,40.7,3.2,49.9
				c0.1,0.8,0.3,1.4,0.5,2.1c0,0,0-0.1,0-0.1h0c1,4,3.1,7.3,6.2,10c8.5,7.5,21.4,6.8,28.9-1.7C487.4,377.3,489,370.8,487.8,364.8z
				 M475.4,375.5c-3.7,4.2-10.2,4.6-14.5,0.9c-4.2-3.7-4.6-10.2-0.9-14.5c3.7-4.2,10.2-4.6,14.5-0.9
				C478.7,364.8,479.1,371.3,475.4,375.5z"/>

				<ellipse transform="matrix(0.6621 -0.7494 0.7494 0.6621 -118.3267 475.0979)" fill="#FFFFFF" cx="467.7" cy="368.8" rx="3.6" ry="3.6"/>
		</g>
	</g>
	<g display="inline">

			<ellipse transform="matrix(0.6563 -0.7545 0.7545 0.6563 -144.0451 240.3514)" fill="#FFFFFF" cx="191.8" cy="278.3" rx="20.4" ry="20.4"/>
		<polygon fill="#FFFFFF" points="152.7,328.1 147.9,323.9 175.5,286.8 185.4,295.4 		"/>
	</g>

		<ellipse transform="matrix(0.7643 -0.6448 0.6448 0.7643 -175.4757 171.1425)" display="inline" fill="#FFFFFF" cx="146.4" cy="325.6" rx="8.7" ry="8.7"/>

		<ellipse transform="matrix(0.5893 -0.8079 0.8079 0.5893 -159.7217 170.6769)" display="inline" fill="#FFFFFF" cx="88" cy="242.4" rx="4.1" ry="4.1"/>

		<ellipse transform="matrix(0.8006 -0.5992 0.5992 0.8006 -117.9812 129.7966)" display="inline" fill="#FFFFFF" cx="136" cy="242.2" rx="4.1" ry="4.1"/>
	<polygon display="inline" fill="#FFFFFF" points="78.3,255.7 103.9,269.3 94.3,282.5 73.5,262.3 	"/>

		<rect x="77.9" y="240.5" transform="matrix(0.8079 0.5893 -0.5893 0.8079 163.4784 -0.1467)" display="inline" fill="#FFFFFF" width="8.2" height="20.5"/>

		<rect x="131.9" y="246.3" transform="matrix(0.5992 0.8006 -0.8006 0.5992 257.4677 -13.4743)" display="inline" fill="#FFFFFF" width="20.5" height="8.2"/>
	<polygon display="inline" fill="#FFFFFF" points="150.8,261.9 145.9,255.3 120.4,269.2 130.3,282.4 	"/>

		<ellipse transform="matrix(0.5893 -0.8079 0.8079 0.5893 -178.0678 167.7195)" display="inline" fill="#FFFFFF" cx="75.9" cy="259" rx="8.2" ry="8.2"/>

		<ellipse transform="matrix(0.8006 -0.5992 0.5992 0.8006 -125.3674 140.4295)" display="inline" fill="#FFFFFF" cx="148.3" cy="258.6" rx="8.2" ry="8.2"/>
	<path display="inline" fill="#FFFFFF" d="M127.6,271.5l-0.2,0.2c-0.5-0.5-1-1-1.5-1.4c-8.5-7.5-21.4-6.7-28.9,1.8
		s-6.7,21.4,1.8,28.9c0.1,0.1,0.3,0.2,0.4,0.3c6.6,7.2,18.5,18.5,36.9,30.7l18.3-15.5C144,292.9,133.2,278.3,127.6,271.5z
		 M119.1,293.2c-4.2,3.8-10.7,3.5-14.5-0.7s-3.5-10.7,0.7-14.5c4.2-3.8,10.7-3.5,14.5,0.7C123.6,282.9,123.3,289.4,119.1,293.2z"/>

		<ellipse transform="matrix(0.7411 -0.6714 0.6714 0.7411 -162.6954 149.3076)" display="inline" fill="#FFFFFF" cx="112.2" cy="285.6" rx="3.6" ry="3.6"/>
	<g display="inline">
		<g>
			<ellipse fill="#FFFFFF" cx="293.4" cy="101.8" rx="6.2" ry="4.4"/>
			<rect x="296" y="78.9" fill="#FFFFFF" width="3.6" height="22.3"/>
		</g>
		<g>
			<ellipse fill="#FFFFFF" cx="310.3" cy="98.2" rx="6.2" ry="4.4"/>
			<rect x="312.9" y="75.3" fill="#FFFFFF" width="3.6" height="22.3"/>
		</g>
		<polygon fill="#FFFFFF" points="316.5,79.6 296,83.3 296,76.9 316.5,73.2 		"/>
	</g>
	<g display="inline">
		<g>
			<ellipse fill="#FFFFFF" cx="230.6" cy="127.9" rx="6.2" ry="4.4"/>
			<rect x="233.2" y="105" fill="#FFFFFF" width="3.6" height="22.3"/>
		</g>
		<g>
			<ellipse fill="#FFFFFF" cx="247.5" cy="124.3" rx="6.2" ry="4.4"/>
			<rect x="250.1" y="101.4" fill="#FFFFFF" width="3.6" height="22.3"/>
		</g>
		<polygon fill="#FFFFFF" points="253.7,105.7 233.2,109.4 233.2,103 253.7,99.3 		"/>
	</g>
	<g display="inline">
		<g>
			<ellipse fill="#FFFFFF" cx="355.4" cy="146.7" rx="6.2" ry="4.4"/>
			<rect x="358" y="123.9" fill="#FFFFFF" width="3.6" height="22.3"/>
		</g>
		<g>
			<ellipse fill="#FFFFFF" cx="372.3" cy="143.1" rx="6.2" ry="4.4"/>
			<rect x="374.9" y="120.3" fill="#FFFFFF" width="3.6" height="22.3"/>
		</g>
		<polygon fill="#FFFFFF" points="378.6,124.6 358.1,128.3 358.1,121.9 378.6,118.2 		"/>
	</g>
	<path display="inline" fill="#FDFDFD" d="M130.7,134.2H92.9c-3.4,0-6.2,2.8-6.2,6.2v93.6c0,3.4,2.8,6.2,6.2,6.2h37.9
		c3.4,0,6.2-2.8,6.2-6.2v-93.6C136.9,136.9,134.1,134.2,130.7,134.2z M112.2,137.6c0.6,0,1.2,0.5,1.2,1.2s-0.5,1.2-1.2,1.2
		s-1.2-0.5-1.2-1.2S111.5,137.6,112.2,137.6z M107.9,143.1c0-0.2,0.2-0.4,0.4-0.4h7.8c0.2,0,0.4,0.2,0.4,0.4v1
		c0,0.2-0.2,0.4-0.4,0.4h-7.8c-0.2,0-0.4-0.2-0.4-0.4V143.1z M111.8,236.3c-2.1,0-3.9-1.7-3.9-3.9c0-2.1,1.7-3.9,3.9-3.9
		c2.1,0,3.9,1.7,3.9,3.9C115.7,234.5,113.9,236.3,111.8,236.3z M133.4,225.1H90.1v-77h43.3V225.1z"/>
	<g display="inline">
		<path fill="none" stroke="#FFFFFF" stroke-width="4" stroke-linecap="round" stroke-miterlimit="10" d="M137.2,120.1
			c-4.8-9.1-14.3-15.2-25.2-15.2s-20.5,6.2-25.2,15.2"/>
		<path fill="none" stroke="#FFFFFF" stroke-width="4" stroke-linecap="round" stroke-miterlimit="10" d="M148.5,110.6
			c-6.9-13.1-20.7-22-36.5-22s-29.6,8.9-36.5,22"/>
	</g>
</g>
<g id="O3_Labs_Bot_-_Roombot" display="none">
	<path display="inline" fill="#FFFFFF" d="M192,171v216h216V171H192z M326.4,197.3c1.9,0,3.4,1.5,3.4,3.4c0,1.9-1.5,3.4-3.4,3.4
		c-1.9,0-3.4-1.5-3.4-3.4C323,198.8,324.5,197.3,326.4,197.3z M310,193.9c0-1.9,1.1-3.4,3-3.4s3,1.5,3,3.4v13.4c0,1.9-1.1,3.4-3,3.4
		s-3-1.5-3-3.4V193.9z M296,187.2c0-1.9,1.6-3.4,3.5-3.4c1.9,0,3.5,1.5,3.5,3.4v26.9c0,1.9-1.6,3.4-3.5,3.4c-1.9,0-3.5-1.5-3.5-3.4
		V187.2z M283,193.9c0-1.9,1.1-3.4,3-3.4c1.9,0,3,1.5,3,3.4v13.4c0,1.9-1.1,3.4-3,3.4c-1.9,0-3-1.5-3-3.4V193.9z M272.6,197.3
		c1.9,0,3.4,1.5,3.4,3.4c0,1.9-1.5,3.4-3.4,3.4s-3.4-1.5-3.4-3.4C269.3,198.8,270.8,197.3,272.6,197.3z M267.1,358h-55.4
		c0,0,0-0.2,0-0.3c0-15.3,12.4-27.7,27.7-27.7s27.7,12.5,27.7,27.7C267.1,357.8,267.1,358,267.1,358z M299.7,330.9
		c-28.6,0-51.9-23.3-51.9-51.9s23.3-51.9,51.9-51.9s51.9,23.3,51.9,51.9S328.4,330.9,299.7,330.9z M366.8,358c-6.2,0-11.9-3-12.1-11
		h6.9c0.1,3,2.4,4.8,5.1,4.8c3,0,5.1-2,5.1-5.4c0-3.1-1.9-5.4-5.3-5.4H366v-6h0.6c3.3,0,4.8-2,4.8-4.6c0-3.2-2.1-4.9-4.6-4.9
		c-2.6,0-4.5,1.5-4.7,4.5h-6.9c0.2-7,5.2-10.7,11.6-10.7c6.7,0,11.5,4.5,11.5,10.9c0,4.1-1.9,6.4-4.4,7.8c2.7,1.4,4.9,4.1,4.9,8.7
		C378.8,354.2,373.3,358,366.8,358z"/>
	<path display="inline" fill="#FFFFFF" d="M238.6,339.9c-0.4-0.7-1.1-1.3-2-1s-1.1,1.1-1,2c0,0,0.8,7.5,0.9,7.9
		c0.5,1.6,2.3,2.5,3.9,2s2.5-2.3,2-3.9C242.3,346.4,238.6,339.9,238.6,339.9z"/>
	<g display="inline">
		<path fill="#FFFFFF" d="M306.4,150.3L306.4,150.3c-0.4,0-0.7-0.2-0.8-0.6l-6.1-15.2l-6.1,15.2c-0.1,0.3-0.5,0.6-0.8,0.6l0,0
			c-0.4,0-0.7-0.2-0.8-0.6l-6.1-15.2l-2.6,6.6c-0.2,0.5-0.7,0.7-1.2,0.5c-0.5-0.2-0.7-0.7-0.5-1.2l3.5-8.6c0.1-0.3,0.5-0.6,0.8-0.6
			c0.4,0,0.7,0.2,0.8,0.6l6.1,15.2l6.1-15.2c0.1-0.3,0.5-0.6,0.8-0.6l0,0c0.4,0,0.7,0.2,0.8,0.6l6.1,15.2l6.1-15.2
			c0.1-0.3,0.5-0.6,0.8-0.6l0,0c0.4,0,0.7,0.2,0.8,0.6l3.5,8.6c0.2,0.5,0,1-0.5,1.2c-0.5,0.2-1,0-1.2-0.5l-2.6-6.6l-6.1,15.2
			C307.1,150.1,306.8,150.3,306.4,150.3z"/>
		<g>
			<g>
				<polygon fill="#FFFFFF" points="321.5,174.5 313.4,171.6 325,145.9 329.1,147.4 				"/>
				<circle fill="#FFFFFF" cx="329.1" cy="142.1" r="6.5"/>
			</g>
			<g>
				<polygon fill="#FFFFFF" points="277.5,174.5 285.6,171.6 274,145.9 269.9,147.4 				"/>
				<circle fill="#FFFFFF" cx="269.9" cy="142.1" r="6.5"/>
			</g>
		</g>
	</g>
	<g display="inline">
		<g>

				<ellipse transform="matrix(0.1746 -0.9846 0.9846 0.1746 -150.0298 578.8987)" fill="#FFFFFF" cx="270.3" cy="378.9" rx="20.4" ry="20.4"/>
			<polygon fill="#FFFFFF" points="266.8,417.3 260.4,416.2 260.7,394.6 273.6,396.9 			"/>
			<path fill="#FFFFFF" d="M237.7,467.5c0,0-2.8-17.8,10.4-46.9h30c13.2,29.1,10.4,46.9,10.4,46.9H237.7z"/>
			<circle fill="#FFFFFF" cx="263.1" cy="422.1" r="10.7"/>
			<path fill="#FFFFFF" d="M286.1,459.3c-7.1-2.7-15.6-4.3-24.7-4.3c-16.2,0-30.4,5-38.8,12.5h63.4V459.3z"/>
		</g>
		<g>

				<ellipse transform="matrix(0.9846 -0.1746 0.1746 0.9846 -61.1089 63.2119)" fill="#FFFFFF" cx="328.7" cy="378.9" rx="20.4" ry="20.4"/>
			<polygon fill="#FFFFFF" points="332.2,417.3 338.6,416.2 338.3,394.6 325.4,396.9 			"/>
			<path fill="#FFFFFF" d="M361.3,467.5c0,0,2.8-17.8-10.4-46.9h-30c-13.2,29.1-10.4,46.9-10.4,46.9H361.3z"/>
			<circle fill="#FFFFFF" cx="335.9" cy="422.1" r="10.7"/>
			<path fill="#FFFFFF" d="M312.9,459.3c7.1-2.7,15.6-4.3,24.7-4.3c16.2,0,30.4,5,38.8,12.5h-63.4V459.3z"/>
		</g>
	</g>
	<g display="inline">
		<g>

				<ellipse transform="matrix(0.6213 -0.7836 0.7836 0.6213 -63.868 424.5224)" fill="#FFFFFF" cx="407.3" cy="278.3" rx="20.4" ry="20.4"/>
			<polygon fill="#FFFFFF" points="454.8,320.2 458.8,315.1 424.9,283.7 416.7,294 			"/>
		</g>
		<g>

				<ellipse transform="matrix(0.9724 -0.2331 0.2331 0.9724 -61.4702 114.9142)" fill="#FFFFFF" cx="455.4" cy="317.5" rx="8.7" ry="8.7"/>

				<ellipse transform="matrix(0.6621 -0.7494 0.7494 0.6621 -158.733 480.2419)" fill="#FFFFFF" cx="453.2" cy="416.1" rx="4.1" ry="4.1"/>

				<ellipse transform="matrix(0.6621 -0.7494 0.7494 0.6621 -145.3875 505.5421)" fill="#FFFFFF" cx="487.9" cy="414" rx="4.1" ry="4.1"/>
			<polygon fill="#FFFFFF" points="440.9,405.3 463,386.5 450.7,375.6 434.7,399.9 			"/>

				<rect x="441.4" y="399.1" transform="matrix(0.6621 -0.7494 0.7494 0.6621 -156.2425 472.1907)" fill="#FFFFFF" width="8.2" height="20.5"/>

				<rect x="484.4" y="402.2" transform="matrix(0.6621 -0.7494 0.7494 0.6621 -137.3363 508.0327)" fill="#FFFFFF" width="20.5" height="8.2"/>
			<polygon fill="#FFFFFF" points="504.2,395.6 498.8,401.7 474.5,385.8 485.4,373.5 			"/>

				<ellipse transform="matrix(0.6621 -0.7494 0.7494 0.6621 -153.752 464.1395)" fill="#FFFFFF" cx="437.8" cy="402.6" rx="8.2" ry="8.2"/>

				<ellipse transform="matrix(0.6621 -0.7494 0.7494 0.6621 -129.2851 510.5232)" fill="#FFFFFF" cx="501.5" cy="398.6" rx="8.2" ry="8.2"/>
			<path fill="#FFFFFF" d="M487.8,364.8L487.8,364.8c-2-8.6-7.4-25.9-20.3-48.3l-23.3,5.6c-1.2,23.7,1.3,40.7,3.2,49.9
				c0.1,0.8,0.3,1.4,0.5,2.1c0,0,0-0.1,0-0.1h0c1,4,3.1,7.3,6.2,10c8.5,7.5,21.4,6.8,28.9-1.7C487.4,377.3,489,370.8,487.8,364.8z
				 M475.4,375.5c-3.7,4.2-10.2,4.6-14.5,0.9c-4.2-3.7-4.6-10.2-0.9-14.5c3.7-4.2,10.2-4.6,14.5-0.9
				C478.7,364.8,479.1,371.3,475.4,375.5z"/>

				<ellipse transform="matrix(0.6621 -0.7494 0.7494 0.6621 -118.3267 475.0979)" fill="#FFFFFF" cx="467.7" cy="368.8" rx="3.6" ry="3.6"/>
		</g>
	</g>
	<path display="inline" fill="#FFFFFF" d="M299.7,248c-17.1,0-31,13.9-31,31c0,17.1,13.9,31,31,31c17.1,0,31-13.9,31-31
		C330.8,261.9,316.8,248,299.7,248z M315.5,293.4c-1.1,1.5-3.2,1.7-4.7,0.6l-13.3-10.2c-0.5-0.4-0.8-0.8-1.1-1.3
		c-0.3-0.5-0.5-1-0.5-1.6v-23.6c0-1.9,1.6-3.4,3.5-3.4c1.9,0,3.5,1.5,3.5,3.4v22.1l12,9.3C316.5,289.8,316.7,291.9,315.5,293.4z"/>
	<g display="inline">
		<path fill="#FFFFFF" d="M100,252.9c0,1.2,1,2.2,2.2,2.2H120c1.2,0,2.2-1,2.2-2.2s-1-2.2-2.2-2.2h-17.9
			C101,250.8,100,251.7,100,252.9z"/>
		<path fill="#FFFFFF" d="M96.3,235.9c0.1,1.2,1.2,2.1,2.4,1.9L124,235c1.2-0.1,2.1-1.2,1.9-2.4c-0.1-1.2-1.2-2.1-2.4-1.9l-25.4,2.9
			C97,233.7,96.1,234.8,96.3,235.9z"/>
		<path fill="#FFFFFF" d="M96.3,245.1c0.1,1.2,1.2,2.1,2.4,1.9l25.4-2.9c1.2-0.1,2.1-1.2,1.9-2.4c-0.1-1.2-1.2-2.1-2.4-1.9
			l-25.4,2.9C97,242.8,96.1,243.9,96.3,245.1z"/>
		<path fill="#FFFFFF" d="M111.1,135.9c-19.1,0-34.6,15.4-34.6,34.5c0,2.7,0.3,5.3,0.9,7.8c2,9.5,10.8,23.1,14.9,32.2
			C95.7,217.9,96,226,96,226h30.2c0,0,0.3-8.1,3.7-15.5c4.1-9.1,12.9-22.7,14.9-32.2c0.6-2.5,0.9-5.1,0.9-7.8
			C145.7,151.4,130.2,135.9,111.1,135.9z M126.3,179.6c-0.2,0.4-0.5,0.7-0.9,0.9c-0.9,0.3-1.9-0.1-2.2-1l-1.1-2.9l-3.9,9.7
			c-0.3,0.7-0.9,1.1-1.6,1.1c-0.7,0-1.3-0.4-1.6-1.1l-3.9-9.7l-3.9,9.7c-0.3,0.7-0.9,1.1-1.6,1.1c-0.7,0-1.3-0.4-1.6-1.1l-3.9-9.7
			l-1.1,2.9c-0.3,0.9-1.4,1.3-2.2,1c-0.9-0.3-1.3-1.3-1-2.2l2.7-6.8c0.3-0.7,0.9-1.1,1.6-1.1c0.7,0,1.3,0.4,1.6,1.1l3.9,9.7l3.9-9.7
			c0.3-0.7,0.9-1.1,1.6-1.1c0.7,0,1.3,0.4,1.6,1.1l3.9,9.7l3.9-9.7c0.3-0.7,0.9-1.1,1.6-1.1c0.7,0,1.3,0.4,1.6,1.1l2.7,6.8
			C126.5,178.7,126.4,179.2,126.3,179.6z"/>
	</g>
	<g display="inline">
		<path fill="#FFFFFF" d="M112,95c-1.3,0-2.3,1.1-2.3,2.3v18.8c0,1.3,1.1,2.3,2.3,2.3s2.3-1.1,2.3-2.3V97.4
			C114.4,96.1,113.3,95,112,95z"/>
	</g>
	<g display="inline">
		<g>
			<path fill="#FFFFFF" d="M72.3,105.7c-1.1,0.6-1.5,2.1-0.9,3.2l9.4,16.3c0.6,1.1,2.1,1.5,3.2,0.9c1.1-0.6,1.5-2.1,0.9-3.2
				l-9.4-16.3C74.8,105.4,73.4,105,72.3,105.7z"/>
		</g>
		<g>
			<path fill="#FFFFFF" d="M43.1,139.3c-0.6,1.1-0.3,2.6,0.9,3.2l16.3,9.4c1.1,0.6,2.6,0.3,3.2-0.9s0.3-2.6-0.9-3.2l-16.3-9.4
				C45.2,137.8,43.8,138.2,43.1,139.3z"/>
		</g>
	</g>
	<g display="inline">
		<g>
			<path fill="#FFFFFF" d="M151.8,105.7c1.1,0.6,1.5,2.1,0.9,3.2l-9.4,16.3c-0.6,1.1-2.1,1.5-3.2,0.9c-1.1-0.6-1.5-2.1-0.9-3.2
				l9.4-16.3C149.2,105.4,150.7,105,151.8,105.7z"/>
		</g>
		<g>
			<path fill="#FFFFFF" d="M180.9,139.3c0.6,1.1,0.3,2.6-0.9,3.2l-16.3,9.4c-1.1,0.6-2.6,0.3-3.2-0.9s-0.3-2.6,0.9-3.2l16.3-9.4
				C178.8,137.8,180.3,138.2,180.9,139.3z"/>
		</g>
	</g>
	<g display="inline">

			<ellipse transform="matrix(0.6563 -0.7545 0.7545 0.6563 -144.0451 240.3514)" fill="#FFFFFF" cx="191.8" cy="278.3" rx="20.4" ry="20.4"/>
		<polygon fill="#FFFFFF" points="152.7,328.1 147.9,323.9 175.5,286.8 185.4,295.4 		"/>
	</g>

		<ellipse transform="matrix(0.7643 -0.6448 0.6448 0.7643 -175.4757 171.1425)" display="inline" fill="#FFFFFF" cx="146.4" cy="325.6" rx="8.7" ry="8.7"/>

		<ellipse transform="matrix(0.6621 -0.7494 0.7494 0.6621 -148.9849 150.2557)" display="inline" fill="#FFFFFF" cx="92.1" cy="240.4" rx="4.1" ry="4.1"/>

		<ellipse transform="matrix(0.7293 -0.6841 0.6841 0.7293 -128.587 154.593)" display="inline" fill="#FFFFFF" cx="131.1" cy="239.8" rx="4.1" ry="4.1"/>
	<polygon display="inline" fill="#FFFFFF" points="81.3,252.6 105.5,268.6 94.6,280.9 75.9,258.8 	"/>

		<rect x="81.3" y="237.8" transform="matrix(0.7494 0.6621 -0.6621 0.7494 185.6278 5.646)" display="inline" fill="#FFFFFF" width="8.2" height="20.5"/>

		<rect x="127.9" y="243.2" transform="matrix(0.6841 0.7293 -0.7293 0.6841 223.9809 -22.6188)" display="inline" fill="#FFFFFF" width="20.5" height="8.2"/>
	<polygon display="inline" fill="#FFFFFF" points="147.9,257.8 142.3,251.8 118.6,268.4 129.8,280.4 	"/>

		<ellipse transform="matrix(0.6621 -0.7494 0.7494 0.6621 -165.0854 145.2732)" display="inline" fill="#FFFFFF" cx="78.6" cy="255.7" rx="8.2" ry="8.2"/>

		<ellipse transform="matrix(0.7293 -0.6841 0.6841 0.7293 -135.0211 168.2368)" display="inline" fill="#FFFFFF" cx="145.1" cy="254.8" rx="8.2" ry="8.2"/>
	<path display="inline" fill="#FFFFFF" d="M127.6,271.5l-0.2,0.2c-0.5-0.5-1-1-1.5-1.4c-8.5-7.5-21.4-6.7-28.9,1.8
		s-6.7,21.4,1.8,28.9c0.1,0.1,0.3,0.2,0.4,0.3c6.6,7.2,18.5,18.5,36.9,30.7l18.3-15.5C144,292.9,133.2,278.3,127.6,271.5z
		 M119.3,293.1c-4.1,3.9-10.6,3.7-14.5-0.5c-3.9-4.1-3.7-10.6,0.5-14.5c4.1-3.9,10.6-3.7,14.5,0.5
		C123.6,282.7,123.4,289.2,119.3,293.1z"/>

		<ellipse transform="matrix(0.7293 -0.6842 0.6842 0.7293 -165.0339 154.1302)" display="inline" fill="#FFFFFF" cx="112.2" cy="285.6" rx="3.6" ry="3.6"/>
</g>
<g id="O3_Labs_Bot_-_Poops_-_Occupied" display="none">
	<path display="inline" fill="#FFFFFF" d="M473.6,375.2c0,10.3-3.5,18.7-7.9,18.7s-7.9-8.4-7.9-18.7s3.5-18.7,7.9-18.7
		S473.6,364.8,473.6,375.2z M464.5,368.6c-1.5,0-2.8,2.9-2.8,6.6c0,3.6,1.2,6.6,2.8,6.6s2.8-2.9,2.8-6.6
		C467.3,371.5,466,368.6,464.5,368.6z"/>
	<path display="inline" fill="#FFFFFF" d="M496.6,393.9c4.4,0,7.9-8.4,7.9-18.7s-3.5-18.7-7.9-18.7h-28.5c4.4,0,7.9,8.4,7.9,18.7
		s-3.5,18.7-7.9,18.7H496.6z"/>
	<path display="inline" fill="#FFFFFF" d="M493.6,396.2c0,0-27.6,0-28.1,0c-3.3,0-5.7-3-7.2-7.3v50.5l1-1l1.4,1.4l1.4-1.4l1.4,1.4
		l1.4-1.4l1.4,1.4l1.4-1.4l1.4,1.4l1.4-1.4l1.4,1.4l1.4-1.4l1.4,1.4l1.4-1.4l1.4,1.4l1.4-1.4l1.4,1.4l1.4-1.4l1.4,1.4l1.4-1.4
		l1.4,1.4l1.4-1.4l1.4,1.4l1.4-1.4l1.4,1.4l1.4-1.4l0.9,1L493.6,396.2C493.6,396.2,493.6,396.2,493.6,396.2z"/>
	<path display="inline" fill="#FFFFFF" d="M238.6,339.9c-0.4-0.7-1.1-1.3-2-1s-1.1,1.1-1,2c0,0,0.8,7.5,0.9,7.9
		c0.5,1.6,2.3,2.5,3.9,2s2.5-2.3,2-3.9C242.3,346.4,238.6,339.9,238.6,339.9z"/>
	<path display="inline" fill="#FFFFFF" d="M299.7,248c-17.1,0-31,13.9-31,31c0,17.1,13.9,31,31,31c17.1,0,31-13.9,31-31
		C330.8,261.9,316.8,248,299.7,248z M299.5,288.3c-5.1,0-9.3-4.2-9.3-9.3s4.2-9.3,9.3-9.3s9.3,4.2,9.3,9.3S304.6,288.3,299.5,288.3z
		 M313.3,269.1c-2,0-3.6-1.6-3.6-3.6c0-2,1.6-3.6,3.6-3.6s3.6,1.6,3.6,3.6C316.9,267.4,315.3,269.1,313.3,269.1z"/>
	<g display="inline">
		<path fill="#FFFFFF" d="M306.4,150.3L306.4,150.3c-0.4,0-0.7-0.2-0.8-0.6l-6.1-15.2l-6.1,15.2c-0.1,0.3-0.5,0.6-0.8,0.6l0,0
			c-0.4,0-0.7-0.2-0.8-0.6l-6.1-15.2l-2.6,6.6c-0.2,0.5-0.7,0.7-1.2,0.5c-0.5-0.2-0.7-0.7-0.5-1.2l3.5-8.6c0.1-0.3,0.5-0.6,0.8-0.6
			c0.4,0,0.7,0.2,0.8,0.6l6.1,15.2l6.1-15.2c0.1-0.3,0.5-0.6,0.8-0.6l0,0c0.4,0,0.7,0.2,0.8,0.6l6.1,15.2l6.1-15.2
			c0.1-0.3,0.5-0.6,0.8-0.6l0,0c0.4,0,0.7,0.2,0.8,0.6l3.5,8.6c0.2,0.5,0,1-0.5,1.2c-0.5,0.2-1,0-1.2-0.5l-2.6-6.6l-6.1,15.2
			C307.1,150.1,306.8,150.3,306.4,150.3z"/>
		<g>
			<g>
				<polygon fill="#FFFFFF" points="321.5,174.5 313.4,171.6 325,145.9 329.1,147.4 				"/>
				<circle fill="#FFFFFF" cx="329.1" cy="142.1" r="6.5"/>
			</g>
			<g>
				<polygon fill="#FFFFFF" points="277.5,174.5 285.6,171.6 274,145.9 269.9,147.4 				"/>
				<circle fill="#FFFFFF" cx="269.9" cy="142.1" r="6.5"/>
			</g>
		</g>
	</g>
	<g display="inline">
		<g>

				<ellipse transform="matrix(0.9944 -0.1058 0.1058 0.9944 -27.1603 44.646)" fill="#FFFFFF" cx="407.3" cy="278.3" rx="20.4" ry="20.4"/>
			<polygon fill="#FFFFFF" points="470.5,274.9 469.8,268.4 423.6,269.8 425,282.9 			"/>
		</g>
		<g>

				<ellipse transform="matrix(0.9855 -0.1698 0.1698 0.9855 -39.4634 83.5984)" fill="#FFFFFF" cx="469.1" cy="272.5" rx="8.7" ry="8.7"/>

				<ellipse transform="matrix(0.9339 -0.3576 0.3576 0.9339 -104.2846 186.9608)" fill="#FFFFFF" cx="453.3" cy="375.4" rx="4.1" ry="4.1"/>

				<ellipse transform="matrix(0.387 -0.9221 0.9221 0.387 -38.3558 692.8154)" fill="#FFFFFF" cx="501.9" cy="375.3" rx="4.1" ry="4.1"/>
			<polygon fill="#FFFFFF" points="448.9,359.2 472.1,341.9 460.6,330.2 443.1,353.4 			"/>

				<rect x="445.6" y="355.6" transform="matrix(0.9339 -0.3576 0.3576 0.9339 -101.1032 185.0164)" fill="#FFFFFF" width="8.2" height="20.5"/>

				<rect x="495.6" y="361.7" transform="matrix(0.387 -0.9221 0.9221 0.387 -27.2079 690.6797)" fill="#FFFFFF" width="20.5" height="8.2"/>
			<polygon fill="#FFFFFF" points="512.7,353.6 506.9,359.4 483.7,341.9 495.4,330.3 			"/>

				<ellipse transform="matrix(0.9339 -0.3576 0.3576 0.9339 -97.9218 183.072)" fill="#FFFFFF" cx="446" cy="356.3" rx="8.2" ry="8.2"/>

				<ellipse transform="matrix(0.387 -0.9221 0.9221 0.387 -16.0599 688.5439)" fill="#FFFFFF" cx="509.8" cy="356.4" rx="8.2" ry="8.2"/>
			<path fill="#FFFFFF" d="M498.3,321.8L498.3,321.8c-1.5-8.7-5.7-26.3-17.1-49.5l-23.6,4.1c-2.8,23.6-1.4,40.7,0,50
				c0.1,0.8,0.2,1.2,0.4,2c0,0,0-0.3,0-0.3h0c0.8,4,2.6,7.7,5.5,10.6c8,8,21,8.3,29,0.3C497.2,334.1,499.1,327.9,498.3,321.8z
				 M485.2,331.7c-4,4-10.5,4-14.5,0c-4-4-4-10.5,0-14.5c4-4,10.5-4,14.5,0C489.2,321.3,489.2,327.8,485.2,331.7z"/>

				<ellipse transform="matrix(0.7091 -0.7051 0.7051 0.7091 -89.751 431.3939)" fill="#FFFFFF" cx="478" cy="324.5" rx="3.6" ry="3.6"/>
		</g>
	</g>
	<path display="inline" fill="#FFFFFF" d="M192,171v216h216V171H192z M299.7,189.9c24.6,0,46.9,10,63.1,26.2l-15.3,15.3
		c-12.2-12.3-29.2-19.9-47.8-19.9c-18.5,0-35.4,7.5-47.6,19.7l-15.3-15.3C253,199.9,275.2,189.9,299.7,189.9z M267.1,358h-55.4
		c0,0,0-0.2,0-0.3c0-15.3,12.4-27.7,27.7-27.7s27.7,12.5,27.7,27.7C267.1,357.8,267.1,358,267.1,358z M299.7,330.9
		c-28.6,0-51.9-23.3-51.9-51.9s23.3-51.9,51.9-51.9s51.9,23.3,51.9,51.9S328.4,330.9,299.7,330.9z M366.8,358c-6.2,0-11.9-3-12.1-11
		h6.9c0.1,3,2.4,4.8,5.1,4.8c3,0,5.1-2,5.1-5.4c0-3.1-1.9-5.4-5.3-5.4H366v-6h0.6c3.3,0,4.8-2,4.8-4.6c0-3.2-2.1-4.9-4.6-4.9
		c-2.6,0-4.5,1.5-4.7,4.5h-6.9c0.2-7,5.2-10.7,11.6-10.7c6.7,0,11.5,4.5,11.5,10.9c0,4.1-1.9,6.4-4.4,7.8c2.7,1.4,4.9,4.1,4.9,8.7
		C378.8,354.2,373.3,358,366.8,358z"/>
	<path display="inline" fill="none" d="M299.7,352c-40.3,0-73-32.8-73-73s32.8-73,73-73s73,32.7,73,73S340,352,299.7,352z"/>
	<text transform="matrix(0.896 -0.4441 0.4441 0.896 262.8867 215.7881)" display="inline"><tspan x="0" y="0" fill="#FFFFFF" font-family="'Lato-Heavy'" font-size="12.48px">O</tspan><tspan x="12.3" y="0.2" fill="#FFFFFF" font-family="'Lato-Heavy'" font-size="12.48px" rotate="8.9">C</tspan><tspan x="22.5" y="2" fill="#FFFFFF" font-family="'Lato-Heavy'" font-size="12.48px" rotate="17.2">C</tspan><tspan x="32.4" y="5.2" fill="#FFFFFF" font-family="'Lato-Heavy'" font-size="12.48px" rotate="25.4">U</tspan><tspan x="42.7" y="10.4" fill="#FFFFFF" font-family="'Lato-Heavy'" font-size="12.48px" rotate="34.1">P</tspan><tspan x="50.9" y="16.2" fill="#FFFFFF" font-family="'Lato-Heavy'" font-size="12.48px" rotate="40.5">I</tspan><tspan x="55.5" y="20.2" fill="#FFFFFF" font-family="'Lato-Heavy'" font-size="12.48px" rotate="46.6">E</tspan><tspan x="61.8" y="27" fill="#FFFFFF" font-family="'Lato-Heavy'" font-size="12.48px" rotate="54.9">D</tspan></text>
	<g display="inline">
		<g>

				<ellipse transform="matrix(0.1746 -0.9846 0.9846 0.1746 -150.0298 578.8987)" fill="#FFFFFF" cx="270.3" cy="378.9" rx="20.4" ry="20.4"/>
			<polygon fill="#FFFFFF" points="266.8,417.3 260.4,416.2 260.7,394.6 273.6,396.9 			"/>
			<path fill="#FFFFFF" d="M237.7,467.5c0,0-2.8-17.8,10.4-46.9h30c13.2,29.1,10.4,46.9,10.4,46.9H237.7z"/>
			<circle fill="#FFFFFF" cx="263.1" cy="422.1" r="10.7"/>
			<path fill="#FFFFFF" d="M286.1,459.3c-7.1-2.7-15.6-4.3-24.7-4.3c-16.2,0-30.4,5-38.8,12.5h63.4V459.3z"/>
		</g>
		<g>

				<ellipse transform="matrix(0.9846 -0.1746 0.1746 0.9846 -61.1089 63.2119)" fill="#FFFFFF" cx="328.7" cy="378.9" rx="20.4" ry="20.4"/>
			<polygon fill="#FFFFFF" points="332.2,417.3 338.6,416.2 338.3,394.6 325.4,396.9 			"/>
			<path fill="#FFFFFF" d="M361.3,467.5c0,0,2.8-17.8-10.4-46.9h-30c-13.2,29.1-10.4,46.9-10.4,46.9H361.3z"/>
			<circle fill="#FFFFFF" cx="335.9" cy="422.1" r="10.7"/>
			<path fill="#FFFFFF" d="M312.9,459.3c7.1-2.7,15.6-4.3,24.7-4.3c16.2,0,30.4,5,38.8,12.5h-63.4V459.3z"/>
		</g>
	</g>
	<g display="inline">

			<ellipse transform="matrix(0.6563 -0.7545 0.7545 0.6563 -144.0451 240.3514)" fill="#FFFFFF" cx="191.8" cy="278.3" rx="20.4" ry="20.4"/>
		<polygon fill="#FFFFFF" points="152.7,328.1 147.9,323.9 175.5,286.8 185.4,295.4 		"/>
	</g>

		<ellipse transform="matrix(0.7643 -0.6448 0.6448 0.7643 -175.4757 171.1425)" display="inline" fill="#FFFFFF" cx="146.4" cy="325.6" rx="8.7" ry="8.7"/>
	<polygon display="inline" fill="#FFFFFF" points="86.6,248.3 108.2,267.8 95.6,278.3 80.3,253.6 	"/>

		<rect x="87.3" y="234.1" transform="matrix(0.6404 0.768 -0.768 0.6404 220.5509 17.7143)" display="inline" fill="#FFFFFF" width="8.2" height="20.5"/>

		<rect x="121.4" y="239.6" transform="matrix(0.7913 0.6114 -0.6114 0.7913 176.4524 -29.6673)" display="inline" fill="#FFFFFF" width="20.5" height="8.2"/>
	<polygon display="inline" fill="#FFFFFF" points="143,252.4 136.6,247.4 115.8,267.6 128.7,277.7 	"/>

		<ellipse transform="matrix(0.768 -0.6404 0.6404 0.768 -141.356 111.6837)" display="inline" fill="#FFFFFF" cx="83.5" cy="251" rx="8.2" ry="8.2"/>

		<ellipse transform="matrix(0.6114 -0.7913 0.7913 0.6114 -143.4546 207.7606)" display="inline" fill="#FFFFFF" cx="139.8" cy="249.9" rx="8.2" ry="8.2"/>
	<path display="inline" fill="#FFFFFF" d="M127.6,271.5l-0.2,0.2c-0.5-0.5-1-1-1.5-1.4c-8.5-7.5-21.4-6.7-28.9,1.8
		s-6.7,21.4,1.8,28.9c0.1,0.1,0.3,0.2,0.4,0.3c6.6,7.2,18.5,18.5,36.9,30.7l18.3-15.5C144,292.9,133.2,278.3,127.6,271.5z
		 M119.1,293.2c-4.2,3.8-10.7,3.5-14.5-0.7s-3.5-10.7,0.7-14.5c4.2-3.8,10.7-3.5,14.5,0.7C123.6,282.9,123.3,289.4,119.1,293.2z"/>

		<ellipse transform="matrix(0.7411 -0.6714 0.6714 0.7411 -162.6954 149.3076)" display="inline" fill="#FFFFFF" cx="112.2" cy="285.6" rx="3.6" ry="3.6"/>

		<ellipse transform="matrix(0.768 -0.6404 0.6404 0.768 -129.2939 118.7222)" display="inline" fill="#FFFFFF" cx="99.2" cy="237.8" rx="4.1" ry="4.1"/>

		<ellipse transform="matrix(0.6114 -0.7913 0.7913 0.6114 -139.8404 190.0499)" display="inline" fill="#FFFFFF" cx="123.6" cy="237.4" rx="4.1" ry="4.1"/>

		<ellipse transform="matrix(1.988987e-03 -1 1 1.988987e-03 85.638 836.6781)" display="inline" fill="#FFFFFF" cx="462" cy="375.4" rx="4.1" ry="4.1"/>
	<polygon display="inline" fill="#FFFFFF" points="453.1,371.3 453.1,379.5 462.2,379.5 462.2,371.3 	"/>
	<g display="inline">
		<g>
			<circle fill="#FFFFFF" cx="111.2" cy="6" r="2.7"/>
			<circle fill="#FFFFFF" cx="111.2" cy="13.3" r="2.7"/>
			<circle fill="#FFFFFF" cx="111.2" cy="20.7" r="2.7"/>
			<circle fill="#FFFFFF" cx="111.2" cy="28" r="2.7"/>
			<circle fill="#FFFFFF" cx="111.2" cy="35.3" r="2.7"/>
			<circle fill="#FFFFFF" cx="111.2" cy="42.7" r="2.7"/>
			<circle fill="#FFFFFF" cx="111.2" cy="50" r="2.7"/>
			<circle fill="#FFFFFF" cx="111.2" cy="57.3" r="2.7"/>
			<circle fill="#FFFFFF" cx="111.2" cy="64.7" r="2.7"/>
			<circle fill="#FFFFFF" cx="111.2" cy="72" r="2.7"/>
			<circle fill="#FFFFFF" cx="111.2" cy="79.3" r="2.7"/>
			<circle fill="#FFFFFF" cx="111.2" cy="86.7" r="2.7"/>
			<circle fill="#FFFFFF" cx="111.2" cy="94" r="2.7"/>
			<circle fill="#FFFFFF" cx="111.2" cy="101.3" r="2.7"/>
			<circle fill="#FFFFFF" cx="111.2" cy="108.7" r="2.7"/>
			<circle fill="#FFFFFF" cx="111.2" cy="116" r="2.7"/>
			<circle fill="#FFFFFF" cx="111.2" cy="123.3" r="2.7"/>
			<circle fill="#FFFFFF" cx="111.2" cy="130.7" r="2.7"/>
			<circle fill="#FFFFFF" cx="111.2" cy="138" r="2.7"/>
			<circle fill="#FFFFFF" cx="111.2" cy="145.3" r="2.7"/>
			<circle fill="#FFFFFF" cx="111.2" cy="152.7" r="2.7"/>
			<circle fill="#FFFFFF" cx="111.2" cy="160" r="2.7"/>
			<circle fill="#FFFFFF" cx="111.2" cy="167.3" r="2.7"/>
			<circle fill="#FFFFFF" cx="111.2" cy="174.7" r="2.7"/>
			<circle fill="#FFFFFF" cx="111.2" cy="182" r="2.7"/>
			<circle fill="#FFFFFF" cx="111.2" cy="189.3" r="2.7"/>
			<circle fill="#FFFFFF" cx="111.2" cy="196.7" r="2.7"/>
		</g>
		<g>
			<circle fill="#FFFFFF" cx="111.2" cy="231.4" r="9.4"/>
			<polygon fill="#FFFFFF" points="114,202.9 120.4,229.1 102.1,229.1 108.5,202.9 			"/>
			<path fill="#FFFFFF" d="M115.4,203c0,0.7-0.6,1.3-1.3,1.3h-5.6c-0.7,0-1.3-0.6-1.3-1.3l0,0c0-0.7,0.6-1.3,1.3-1.3h5.6
				C114.8,201.6,115.4,202.2,115.4,203L115.4,203z"/>
		</g>
	</g>
</g>
<g id="O3_Labs_Bot_-_Poops_-_Vacant" display="none">
	<path display="inline" fill="#FFFFFF" d="M473.6,375.2c0,10.3-3.5,18.7-7.9,18.7s-7.9-8.4-7.9-18.7s3.5-18.7,7.9-18.7
		S473.6,364.8,473.6,375.2z M464.5,368.6c-1.5,0-2.8,2.9-2.8,6.6c0,3.6,1.2,6.6,2.8,6.6s2.8-2.9,2.8-6.6
		C467.3,371.5,466,368.6,464.5,368.6z"/>
	<path display="inline" fill="#FFFFFF" d="M496.6,393.9c4.4,0,7.9-8.4,7.9-18.7s-3.5-18.7-7.9-18.7h-28.5c4.4,0,7.9,8.4,7.9,18.7
		s-3.5,18.7-7.9,18.7H496.6z"/>
	<path display="inline" fill="#FFFFFF" d="M493.6,396.2c0,0-27.6,0-28.1,0c-3.3,0-5.7-3-7.2-7.3v50.5l1-1l1.4,1.4l1.4-1.4l1.4,1.4
		l1.4-1.4l1.4,1.4l1.4-1.4l1.4,1.4l1.4-1.4l1.4,1.4l1.4-1.4l1.4,1.4l1.4-1.4l1.4,1.4l1.4-1.4l1.4,1.4l1.4-1.4l1.4,1.4l1.4-1.4
		l1.4,1.4l1.4-1.4l1.4,1.4l1.4-1.4l1.4,1.4l1.4-1.4l0.9,1L493.6,396.2C493.6,396.2,493.6,396.2,493.6,396.2z"/>
	<path display="inline" fill="#FFFFFF" d="M238.6,339.9c-0.4-0.7-1.1-1.3-2-1s-1.1,1.1-1,2c0,0,0.8,7.5,0.9,7.9
		c0.5,1.6,2.3,2.5,3.9,2s2.5-2.3,2-3.9C242.3,346.4,238.6,339.9,238.6,339.9z"/>
	<path display="inline" fill="#FFFFFF" d="M299.7,248c-17.1,0-31,13.9-31,31c0,17.1,13.9,31,31,31c17.1,0,31-13.9,31-31
		C330.8,261.9,316.8,248,299.7,248z M299.5,288.3c-5.1,0-9.3-4.2-9.3-9.3s4.2-9.3,9.3-9.3s9.3,4.2,9.3,9.3S304.6,288.3,299.5,288.3z
		 M313.3,269.1c-2,0-3.6-1.6-3.6-3.6c0-2,1.6-3.6,3.6-3.6s3.6,1.6,3.6,3.6C316.9,267.4,315.3,269.1,313.3,269.1z"/>
	<g display="inline">
		<path fill="#FFFFFF" d="M306.4,150.3L306.4,150.3c-0.4,0-0.7-0.2-0.8-0.6l-6.1-15.2l-6.1,15.2c-0.1,0.3-0.5,0.6-0.8,0.6l0,0
			c-0.4,0-0.7-0.2-0.8-0.6l-6.1-15.2l-2.6,6.6c-0.2,0.5-0.7,0.7-1.2,0.5c-0.5-0.2-0.7-0.7-0.5-1.2l3.5-8.6c0.1-0.3,0.5-0.6,0.8-0.6
			c0.4,0,0.7,0.2,0.8,0.6l6.1,15.2l6.1-15.2c0.1-0.3,0.5-0.6,0.8-0.6l0,0c0.4,0,0.7,0.2,0.8,0.6l6.1,15.2l6.1-15.2
			c0.1-0.3,0.5-0.6,0.8-0.6l0,0c0.4,0,0.7,0.2,0.8,0.6l3.5,8.6c0.2,0.5,0,1-0.5,1.2c-0.5,0.2-1,0-1.2-0.5l-2.6-6.6l-6.1,15.2
			C307.1,150.1,306.8,150.3,306.4,150.3z"/>
		<g>
			<g>
				<polygon fill="#FFFFFF" points="321.5,174.5 313.4,171.6 325,145.9 329.1,147.4 				"/>
				<circle fill="#FFFFFF" cx="329.1" cy="142.1" r="6.5"/>
			</g>
			<g>
				<polygon fill="#FFFFFF" points="277.5,174.5 285.6,171.6 274,145.9 269.9,147.4 				"/>
				<circle fill="#FFFFFF" cx="269.9" cy="142.1" r="6.5"/>
			</g>
		</g>
	</g>
	<g display="inline">
		<g>

				<ellipse transform="matrix(0.9944 -0.1058 0.1058 0.9944 -27.1603 44.646)" fill="#FFFFFF" cx="407.3" cy="278.3" rx="20.4" ry="20.4"/>
			<polygon fill="#FFFFFF" points="470.5,274.9 469.8,268.4 423.6,269.8 425,282.9 			"/>
		</g>
		<g>

				<ellipse transform="matrix(0.9855 -0.1698 0.1698 0.9855 -39.4634 83.5984)" fill="#FFFFFF" cx="469.1" cy="272.5" rx="8.7" ry="8.7"/>

				<ellipse transform="matrix(0.9339 -0.3576 0.3576 0.9339 -104.2846 186.9608)" fill="#FFFFFF" cx="453.3" cy="375.4" rx="4.1" ry="4.1"/>

				<ellipse transform="matrix(0.387 -0.9221 0.9221 0.387 -38.3558 692.8154)" fill="#FFFFFF" cx="501.9" cy="375.3" rx="4.1" ry="4.1"/>
			<polygon fill="#FFFFFF" points="448.9,359.2 472.1,341.9 460.6,330.2 443.1,353.4 			"/>

				<rect x="445.6" y="355.6" transform="matrix(0.9339 -0.3576 0.3576 0.9339 -101.1032 185.0164)" fill="#FFFFFF" width="8.2" height="20.5"/>

				<rect x="495.6" y="361.7" transform="matrix(0.387 -0.9221 0.9221 0.387 -27.2079 690.6797)" fill="#FFFFFF" width="20.5" height="8.2"/>
			<polygon fill="#FFFFFF" points="512.7,353.6 506.9,359.4 483.7,341.9 495.4,330.3 			"/>

				<ellipse transform="matrix(0.9339 -0.3576 0.3576 0.9339 -97.9218 183.072)" fill="#FFFFFF" cx="446" cy="356.3" rx="8.2" ry="8.2"/>

				<ellipse transform="matrix(0.387 -0.9221 0.9221 0.387 -16.0599 688.5439)" fill="#FFFFFF" cx="509.8" cy="356.4" rx="8.2" ry="8.2"/>
			<path fill="#FFFFFF" d="M498.3,321.8L498.3,321.8c-1.5-8.7-5.7-26.3-17.1-49.5l-23.6,4.1c-2.8,23.6-1.4,40.7,0,50
				c0.1,0.8,0.2,1.2,0.4,2c0,0,0-0.3,0-0.3h0c0.8,4,2.6,7.7,5.5,10.6c8,8,21,8.3,29,0.3C497.2,334.1,499.1,327.9,498.3,321.8z
				 M485.2,331.7c-4,4-10.5,4-14.5,0c-4-4-4-10.5,0-14.5c4-4,10.5-4,14.5,0C489.2,321.3,489.2,327.8,485.2,331.7z"/>

				<ellipse transform="matrix(0.7091 -0.7051 0.7051 0.7091 -89.751 431.3939)" fill="#FFFFFF" cx="478" cy="324.5" rx="3.6" ry="3.6"/>
		</g>
	</g>
	<path display="inline" fill="#FFFFFF" d="M192,171v216h216V171H192z M299.7,189.9c24.6,0,46.9,10,63.1,26.2l-15.3,15.3
		c-12.2-12.3-29.2-19.9-47.8-19.9c-18.5,0-35.4,7.5-47.6,19.7l-15.3-15.3C253,199.9,275.2,189.9,299.7,189.9z M267.1,358h-55.4
		c0,0,0-0.2,0-0.3c0-15.3,12.4-27.7,27.7-27.7s27.7,12.5,27.7,27.7C267.1,357.8,267.1,358,267.1,358z M299.7,330.9
		c-28.6,0-51.9-23.3-51.9-51.9s23.3-51.9,51.9-51.9s51.9,23.3,51.9,51.9S328.4,330.9,299.7,330.9z M366.8,358c-6.2,0-11.9-3-12.1-11
		h6.9c0.1,3,2.4,4.8,5.1,4.8c3,0,5.1-2,5.1-5.4c0-3.1-1.9-5.4-5.3-5.4H366v-6h0.6c3.3,0,4.8-2,4.8-4.6c0-3.2-2.1-4.9-4.6-4.9
		c-2.6,0-4.5,1.5-4.7,4.5h-6.9c0.2-7,5.2-10.7,11.6-10.7c6.7,0,11.5,4.5,11.5,10.9c0,4.1-1.9,6.4-4.4,7.8c2.7,1.4,4.9,4.1,4.9,8.7
		C378.8,354.2,373.3,358,366.8,358z"/>
	<path display="inline" fill="none" d="M299.7,352c-40.3,0-73-32.8-73-73s32.8-73,73-73s73,32.7,73,73S340,352,299.7,352z"/>
	<text transform="matrix(0.9384 -0.3454 0.3454 0.9384 270.4751 211.9702)" display="inline"><tspan x="0" y="0" fill="#FFFFFF" font-family="'Lato-Heavy'" font-size="12.48px">V</tspan><tspan x="10.9" y="0.2" fill="#FFFFFF" font-family="'Lato-Heavy'" font-size="12.48px" rotate="8.6">A</tspan><tspan x="21.7" y="2" fill="#FFFFFF" font-family="'Lato-Heavy'" font-size="12.48px" rotate="17">C</tspan><tspan x="31.6" y="5.2" fill="#FFFFFF" font-family="'Lato-Heavy'" font-size="12.48px" rotate="25.3">A</tspan><tspan x="41.5" y="10" fill="#FFFFFF" font-family="'Lato-Heavy'" font-size="12.48px" rotate="34.3">N</tspan><tspan x="51.1" y="16.8" fill="#FFFFFF" font-family="'Lato-Heavy'" font-size="12.48px" rotate="42.8">T</tspan></text>
	<g display="inline">
		<g>

				<ellipse transform="matrix(0.1746 -0.9846 0.9846 0.1746 -150.0298 578.8987)" fill="#FFFFFF" cx="270.3" cy="378.9" rx="20.4" ry="20.4"/>
			<polygon fill="#FFFFFF" points="266.8,417.3 260.4,416.2 260.7,394.6 273.6,396.9 			"/>
			<path fill="#FFFFFF" d="M237.7,467.5c0,0-2.8-17.8,10.4-46.9h30c13.2,29.1,10.4,46.9,10.4,46.9H237.7z"/>
			<circle fill="#FFFFFF" cx="263.1" cy="422.1" r="10.7"/>
			<path fill="#FFFFFF" d="M286.1,459.3c-7.1-2.7-15.6-4.3-24.7-4.3c-16.2,0-30.4,5-38.8,12.5h63.4V459.3z"/>
		</g>
		<g>

				<ellipse transform="matrix(0.9846 -0.1746 0.1746 0.9846 -61.1089 63.2119)" fill="#FFFFFF" cx="328.7" cy="378.9" rx="20.4" ry="20.4"/>
			<polygon fill="#FFFFFF" points="332.2,417.3 338.6,416.2 338.3,394.6 325.4,396.9 			"/>
			<path fill="#FFFFFF" d="M361.3,467.5c0,0,2.8-17.8-10.4-46.9h-30c-13.2,29.1-10.4,46.9-10.4,46.9H361.3z"/>
			<circle fill="#FFFFFF" cx="335.9" cy="422.1" r="10.7"/>
			<path fill="#FFFFFF" d="M312.9,459.3c7.1-2.7,15.6-4.3,24.7-4.3c16.2,0,30.4,5,38.8,12.5h-63.4V459.3z"/>
		</g>
	</g>
	<g display="inline">

			<ellipse transform="matrix(0.6563 -0.7545 0.7545 0.6563 -144.0451 240.3514)" fill="#FFFFFF" cx="191.8" cy="278.3" rx="20.4" ry="20.4"/>
		<polygon fill="#FFFFFF" points="152.7,328.1 147.9,323.9 175.5,286.8 185.4,295.4 		"/>
	</g>

		<ellipse transform="matrix(0.7643 -0.6448 0.6448 0.7643 -175.4757 171.1425)" display="inline" fill="#FFFFFF" cx="146.4" cy="325.6" rx="8.7" ry="8.7"/>
	<polygon display="inline" fill="#FFFFFF" points="86.6,248.3 108.2,267.8 95.6,278.3 80.3,253.6 	"/>

		<rect x="87.3" y="234.1" transform="matrix(0.6404 0.768 -0.768 0.6404 220.5509 17.7143)" display="inline" fill="#FFFFFF" width="8.2" height="20.5"/>

		<rect x="121.4" y="239.6" transform="matrix(0.7913 0.6114 -0.6114 0.7913 176.4524 -29.6673)" display="inline" fill="#FFFFFF" width="20.5" height="8.2"/>
	<polygon display="inline" fill="#FFFFFF" points="143,252.4 136.6,247.4 115.8,267.6 128.7,277.7 	"/>

		<ellipse transform="matrix(0.768 -0.6404 0.6404 0.768 -141.356 111.6837)" display="inline" fill="#FFFFFF" cx="83.5" cy="251" rx="8.2" ry="8.2"/>

		<ellipse transform="matrix(0.6114 -0.7913 0.7913 0.6114 -143.4546 207.7606)" display="inline" fill="#FFFFFF" cx="139.8" cy="249.9" rx="8.2" ry="8.2"/>
	<path display="inline" fill="#FFFFFF" d="M127.6,271.5l-0.2,0.2c-0.5-0.5-1-1-1.5-1.4c-8.5-7.5-21.4-6.7-28.9,1.8
		s-6.7,21.4,1.8,28.9c0.1,0.1,0.3,0.2,0.4,0.3c6.6,7.2,18.5,18.5,36.9,30.7l18.3-15.5C144,292.9,133.2,278.3,127.6,271.5z
		 M119.1,293.2c-4.2,3.8-10.7,3.5-14.5-0.7s-3.5-10.7,0.7-14.5c4.2-3.8,10.7-3.5,14.5,0.7C123.6,282.9,123.3,289.4,119.1,293.2z"/>

		<ellipse transform="matrix(0.7411 -0.6714 0.6714 0.7411 -162.6954 149.3076)" display="inline" fill="#FFFFFF" cx="112.2" cy="285.6" rx="3.6" ry="3.6"/>

		<ellipse transform="matrix(0.768 -0.6404 0.6404 0.768 -129.2939 118.7222)" display="inline" fill="#FFFFFF" cx="99.2" cy="237.8" rx="4.1" ry="4.1"/>

		<ellipse transform="matrix(0.6114 -0.7913 0.7913 0.6114 -139.8404 190.0499)" display="inline" fill="#FFFFFF" cx="123.6" cy="237.4" rx="4.1" ry="4.1"/>

		<ellipse transform="matrix(1.988987e-03 -1 1 1.988987e-03 85.638 836.6781)" display="inline" fill="#FFFFFF" cx="462" cy="375.4" rx="4.1" ry="4.1"/>
	<polygon display="inline" fill="#FFFFFF" points="453.1,371.3 453.1,379.5 462.2,379.5 462.2,371.3 	"/>
	<g display="inline">
		<g>
			<circle fill="#FFFFFF" cx="111.2" cy="6" r="2.7"/>
			<circle fill="#FFFFFF" cx="111.2" cy="13.3" r="2.7"/>
			<circle fill="#FFFFFF" cx="111.2" cy="20.7" r="2.7"/>
			<circle fill="#FFFFFF" cx="111.2" cy="28" r="2.7"/>
			<circle fill="#FFFFFF" cx="111.2" cy="35.3" r="2.7"/>
			<circle fill="#FFFFFF" cx="111.2" cy="42.7" r="2.7"/>
			<circle fill="#FFFFFF" cx="111.2" cy="50" r="2.7"/>
			<circle fill="#FFFFFF" cx="111.2" cy="57.3" r="2.7"/>
			<circle fill="#FFFFFF" cx="111.2" cy="64.7" r="2.7"/>
			<circle fill="#FFFFFF" cx="111.2" cy="72" r="2.7"/>
			<circle fill="#FFFFFF" cx="111.2" cy="79.3" r="2.7"/>
			<circle fill="#FFFFFF" cx="111.2" cy="86.7" r="2.7"/>
			<circle fill="#FFFFFF" cx="111.2" cy="94" r="2.7"/>
			<circle fill="#FFFFFF" cx="111.2" cy="101.3" r="2.7"/>
			<circle fill="#FFFFFF" cx="111.2" cy="108.7" r="2.7"/>
			<circle fill="#FFFFFF" cx="111.2" cy="116" r="2.7"/>
			<circle fill="#FFFFFF" cx="111.2" cy="123.3" r="2.7"/>
			<circle fill="#FFFFFF" cx="111.2" cy="130.7" r="2.7"/>
			<circle fill="#FFFFFF" cx="111.2" cy="138" r="2.7"/>
			<circle fill="#FFFFFF" cx="111.2" cy="145.3" r="2.7"/>
			<circle fill="#FFFFFF" cx="111.2" cy="152.7" r="2.7"/>
			<circle fill="#FFFFFF" cx="111.2" cy="160" r="2.7"/>
			<circle fill="#FFFFFF" cx="111.2" cy="167.3" r="2.7"/>
			<circle fill="#FFFFFF" cx="111.2" cy="174.7" r="2.7"/>
			<circle fill="#FFFFFF" cx="111.2" cy="182" r="2.7"/>
			<circle fill="#FFFFFF" cx="111.2" cy="189.3" r="2.7"/>
			<circle fill="#FFFFFF" cx="111.2" cy="196.7" r="2.7"/>
		</g>
		<g>
			<circle fill="#FFFFFF" cx="111.2" cy="231.4" r="9.4"/>
			<polygon fill="#FFFFFF" points="114,202.9 120.4,229.1 102.1,229.1 108.5,202.9 			"/>
			<path fill="#FFFFFF" d="M115.4,203c0,0.7-0.6,1.3-1.3,1.3h-5.6c-0.7,0-1.3-0.6-1.3-1.3l0,0c0-0.7,0.6-1.3,1.3-1.3h5.6
				C114.8,201.6,115.4,202.2,115.4,203L115.4,203z"/>
		</g>
	</g>
</g>
<g id="O3_Labs_Bot_-_Barista" display="none">
	<g display="inline">
		<g>

				<ellipse transform="matrix(0.1746 -0.9846 0.9846 0.1746 -150.0298 578.8987)" fill="#FFFFFF" cx="270.3" cy="378.9" rx="20.4" ry="20.4"/>
			<polygon fill="#FFFFFF" points="266.8,417.3 260.4,416.2 260.7,394.6 273.6,396.9 			"/>
			<path fill="#FFFFFF" d="M237.7,467.5c0,0-2.8-17.8,10.4-46.9h30c13.2,29.1,10.4,46.9,10.4,46.9H237.7z"/>
			<circle fill="#FFFFFF" cx="263.1" cy="422.1" r="10.7"/>
			<path fill="#FFFFFF" d="M286.1,459.3c-7.1-2.7-15.6-4.3-24.7-4.3c-16.2,0-30.4,5-38.8,12.5h63.4V459.3z"/>
		</g>
		<g>

				<ellipse transform="matrix(0.9846 -0.1746 0.1746 0.9846 -61.1089 63.2119)" fill="#FFFFFF" cx="328.7" cy="378.9" rx="20.4" ry="20.4"/>
			<polygon fill="#FFFFFF" points="332.2,417.3 338.6,416.2 338.3,394.6 325.4,396.9 			"/>
			<path fill="#FFFFFF" d="M361.3,467.5c0,0,2.8-17.8-10.4-46.9h-30c-13.2,29.1-10.4,46.9-10.4,46.9H361.3z"/>
			<circle fill="#FFFFFF" cx="335.9" cy="422.1" r="10.7"/>
			<path fill="#FFFFFF" d="M312.9,459.3c7.1-2.7,15.6-4.3,24.7-4.3c16.2,0,30.4,5,38.8,12.5h-63.4V459.3z"/>
		</g>
	</g>
	<path display="inline" fill="#FFFFFF" d="M62.9,220.2c0-2.5,2-4.5,4.5-4.5h87.7c2.5,0,4.5,2,4.5,4.5v0.8c0,2.5-2,4.5-4.5,4.5h-21
		v0.5c0,1.2-0.9,2.1-2.1,2.1H90.4c-1.2,0-2.1-0.9-2.1-2.1l-21-0.5c-2.5,0-4.5-2-4.5-4.5L62.9,220.2L62.9,220.2z M137.2,180.1v15.2
		c0.6,0.2,1.3,0.2,2,0.2c4.3,0,7.9-3.5,7.9-7.9c0-4.3-3.5-7.9-7.9-7.9C138.6,179.8,137.8,179.9,137.2,180.1z M82.3,169.5h54.9v5.3
		c0.6-0.1,1.3-0.2,2-0.2c7.2,0,13,5.8,13,13s-5.8,13-13,13c-0.7,0-1.4-0.1-2.1-0.2c-0.6,4.4-4.4,7.8-8.9,7.8h-37c-5,0-9-4-9-9
		L82.3,169.5L82.3,169.5z"/>
	<path display="inline" fill="#FFFFFF" d="M296.6,173.1v-9.6h-19.2c0-11.8,9.1-21.5,20.7-22.4v-12.3c-2.7-0.8-4.7-3.3-4.7-6.3
		c0-3.6,2.9-6.5,6.5-6.5c3.6,0,6.5,2.9,6.5,6.5c0,3-2,5.5-4.7,6.3v12.3c11.6,0.9,20.7,10.6,20.7,22.4h-19.2v9.6L296.6,173.1z"/>
	<path display="inline" fill="#FFFFFF" d="M258.3,285c2.9,20.3,20.4,35.9,41.4,35.9c21,0,38.5-15.6,41.4-35.9H258.3z"/>
	<path display="inline" fill-rule="evenodd" clip-rule="evenodd" fill="#FFFFFF" d="M294.8,249.4L294.8,249.4c0,0.1,0,0.1-0.1,0.1
		l0,0l0,0.1l0,0c0,0,0,0.1,0,0.1l0,0v0l0,0.1v0l0,0l0,0.1l0,0.1l0,0l0,0l0,0.1l0,0.1l0,0.1v0c0,0,0,0.1,0,0.1v0c0,0,0,0.1,0,0.1v0
		c0,0,0,0.1,0,0.1v0c0,0,0,0.1,0,0.1v0c0,0,0,0.1,0,0.1s0,0.1,0,0.1v0c0,0,0,0.1,0,0.1c0,0,0,0.1,0,0.1c0,0,0,0.1,0,0.1s0,0.1,0,0.1
		c0,3.2,2.6,5.8,5.8,5.8s5.8-2.6,5.8-5.8c0,0,0-0.1,0-0.1s0-0.1,0-0.1c0,0,0-0.1,0-0.1c0,0,0-0.1,0-0.1v0c0,0,0-0.1,0-0.1
		c0,0,0-0.1,0-0.1v0c0,0,0-0.1,0-0.1v0c0,0,0-0.1,0-0.1v0c0,0,0-0.1,0-0.1v0c0,0,0-0.1,0-0.1v0l0-0.1l0-0.1l0-0.1l0,0l0,0l0-0.1
		l0-0.1l0,0v0l0-0.1v0l0,0c0,0,0-0.1,0-0.1l0,0l0-0.1l0,0c0,0,0-0.1,0-0.1l0,0l-5.2-11.1v-0.2l-0.1,0.1l-0.1-0.1v0.2L294.8,249.4
		L294.8,249.4z"/>
	<path display="inline" fill="#FFFFFF" d="M246.7,345.7c0.7-0.5,1.1-1.3,0.7-2.1c-0.4-0.8-1.2-0.9-2.1-0.7c0,0-7.3,1.8-7.7,2
		c-1.5,0.8-2.2,2.6-1.4,4.2c0.8,1.5,2.6,2.2,4.2,1.4C240.8,350.4,246.7,345.7,246.7,345.7z"/>
	<path display="inline" fill="#FFFFFF" d="M192,171v216h216V171H192z M299.7,189.9c24.6,0,46.9,10,63.1,26.2l-15.3,15.3
		c-12.2-12.3-29.2-19.9-47.8-19.9c-18.5,0-35.4,7.5-47.6,19.7l-15.3-15.3C253,199.9,275.2,189.9,299.7,189.9z M267.1,358h-55.4
		c0,0,0-0.2,0-0.3c0-15.3,12.4-27.7,27.7-27.7s27.7,12.5,27.7,27.7C267.1,357.8,267.1,358,267.1,358z M299.7,330.9
		c-28.6,0-51.9-23.3-51.9-51.9s23.3-51.9,51.9-51.9s51.9,23.3,51.9,51.9S328.4,330.9,299.7,330.9z M366.8,358c-6.2,0-11.9-3-12.1-11
		h6.9c0.1,3,2.4,4.8,5.1,4.8c3,0,5.1-2,5.1-5.4c0-3.1-1.9-5.4-5.3-5.4H366v-6h0.6c3.3,0,4.8-2,4.8-4.6c0-3.2-2.1-4.9-4.6-4.9
		c-2.6,0-4.5,1.5-4.7,4.5h-6.9c0.2-7,5.2-10.7,11.6-10.7c6.7,0,11.5,4.5,11.5,10.9c0,4.1-1.9,6.4-4.4,7.8c2.7,1.4,4.9,4.1,4.9,8.7
		C378.8,354.2,373.3,358,366.8,358z"/>
	<path display="inline" fill="#FFFFFF" d="M327.7,199.7l-4.6,10.7c8.9,3,17.1,7.8,24.4,14.1l8.2-8.2
		C347.4,208.9,337.9,203.3,327.7,199.7z"/>
	<path display="inline" opacity="0.5" fill="#FFFFFF" d="M272.2,199.6c-10.3,3.6-19.8,9.1-28.1,16.5l8.2,8.2
		c7.3-6.3,15.6-11,24.5-14L272.2,199.6z"/>
	<path display="inline" opacity="0.5" fill="#FFFFFF" d="M321,197.7c-6.9-1.8-14-2.7-21.3-2.7c-7.1,0-14.1,0.9-20.8,2.6l4.7,10.8
		c5.2-1.2,10.6-1.8,16.1-1.8c5.7,0,11.2,0.7,16.6,1.9L321,197.7z"/>
	<g display="inline">
		<g>

				<ellipse transform="matrix(0.6213 -0.7836 0.7836 0.6213 -63.868 424.5224)" fill="#FFFFFF" cx="407.3" cy="278.3" rx="20.4" ry="20.4"/>
			<polygon fill="#FFFFFF" points="454.8,320.2 458.8,315.1 424.9,283.7 416.7,294 			"/>
		</g>
		<g>

				<ellipse transform="matrix(0.9724 -0.2331 0.2331 0.9724 -61.4702 114.9142)" fill="#FFFFFF" cx="455.4" cy="317.5" rx="8.7" ry="8.7"/>

				<ellipse transform="matrix(0.6621 -0.7494 0.7494 0.6621 -158.733 480.2419)" fill="#FFFFFF" cx="453.2" cy="416.1" rx="4.1" ry="4.1"/>

				<ellipse transform="matrix(0.6621 -0.7494 0.7494 0.6621 -145.3875 505.5421)" fill="#FFFFFF" cx="487.9" cy="414" rx="4.1" ry="4.1"/>
			<polygon fill="#FFFFFF" points="440.9,405.3 463,386.5 450.7,375.6 434.7,399.9 			"/>

				<rect x="441.4" y="399.1" transform="matrix(0.6621 -0.7494 0.7494 0.6621 -156.2425 472.1907)" fill="#FFFFFF" width="8.2" height="20.5"/>

				<rect x="484.4" y="402.2" transform="matrix(0.6621 -0.7494 0.7494 0.6621 -137.3363 508.0327)" fill="#FFFFFF" width="20.5" height="8.2"/>
			<polygon fill="#FFFFFF" points="504.2,395.6 498.8,401.7 474.5,385.8 485.4,373.5 			"/>

				<ellipse transform="matrix(0.6621 -0.7494 0.7494 0.6621 -153.752 464.1395)" fill="#FFFFFF" cx="437.8" cy="402.6" rx="8.2" ry="8.2"/>

				<ellipse transform="matrix(0.6621 -0.7494 0.7494 0.6621 -129.2851 510.5232)" fill="#FFFFFF" cx="501.5" cy="398.6" rx="8.2" ry="8.2"/>
			<path fill="#FFFFFF" d="M487.8,364.8L487.8,364.8c-2-8.6-7.4-25.9-20.3-48.3l-23.3,5.6c-1.2,23.7,1.3,40.7,3.2,49.9
				c0.1,0.8,0.3,1.4,0.5,2.1c0,0,0-0.1,0-0.1h0c1,4,3.1,7.3,6.2,10c8.5,7.5,21.4,6.8,28.9-1.7C487.4,377.3,489,370.8,487.8,364.8z
				 M475.4,375.5c-3.7,4.2-10.2,4.6-14.5,0.9c-4.2-3.7-4.6-10.2-0.9-14.5c3.7-4.2,10.2-4.6,14.5-0.9
				C478.7,364.8,479.1,371.3,475.4,375.5z"/>

				<ellipse transform="matrix(0.6621 -0.7494 0.7494 0.6621 -118.3267 475.0979)" fill="#FFFFFF" cx="467.7" cy="368.8" rx="3.6" ry="3.6"/>
		</g>
	</g>
	<g display="inline">

			<ellipse transform="matrix(0.6563 -0.7545 0.7545 0.6563 -144.0451 240.3514)" fill="#FFFFFF" cx="191.8" cy="278.3" rx="20.4" ry="20.4"/>
		<polygon fill="#FFFFFF" points="152.7,328.1 147.9,323.9 175.5,286.8 185.4,295.4 		"/>
	</g>

		<ellipse transform="matrix(0.7643 -0.6448 0.6448 0.7643 -175.4757 171.1425)" display="inline" fill="#FFFFFF" cx="146.4" cy="325.6" rx="8.7" ry="8.7"/>

		<ellipse transform="matrix(0.6621 -0.7494 0.7494 0.6621 -148.9849 150.2557)" display="inline" fill="#FFFFFF" cx="92.1" cy="240.4" rx="4.1" ry="4.1"/>

		<ellipse transform="matrix(0.7293 -0.6841 0.6841 0.7293 -128.587 154.593)" display="inline" fill="#FFFFFF" cx="131.1" cy="239.8" rx="4.1" ry="4.1"/>
	<polygon display="inline" fill="#FFFFFF" points="81.3,252.6 105.5,268.6 94.6,280.9 75.9,258.8 	"/>

		<rect x="81.3" y="237.8" transform="matrix(0.7494 0.6621 -0.6621 0.7494 185.6278 5.646)" display="inline" fill="#FFFFFF" width="8.2" height="20.5"/>

		<rect x="127.9" y="243.2" transform="matrix(0.6841 0.7293 -0.7293 0.6841 223.9809 -22.6188)" display="inline" fill="#FFFFFF" width="20.5" height="8.2"/>
	<polygon display="inline" fill="#FFFFFF" points="147.9,257.8 142.3,251.8 118.6,268.4 129.8,280.4 	"/>

		<ellipse transform="matrix(0.6621 -0.7494 0.7494 0.6621 -165.0854 145.2732)" display="inline" fill="#FFFFFF" cx="78.6" cy="255.7" rx="8.2" ry="8.2"/>

		<ellipse transform="matrix(0.7293 -0.6841 0.6841 0.7293 -135.0211 168.2368)" display="inline" fill="#FFFFFF" cx="145.1" cy="254.8" rx="8.2" ry="8.2"/>
	<path display="inline" fill="#FFFFFF" d="M127.6,271.5l-0.2,0.2c-0.5-0.5-1-1-1.5-1.4c-8.5-7.5-21.4-6.7-28.9,1.8
		s-6.7,21.4,1.8,28.9c0.1,0.1,0.3,0.2,0.4,0.3c6.6,7.2,18.5,18.5,36.9,30.7l18.3-15.5C144,292.9,133.2,278.3,127.6,271.5z
		 M119.3,293.1c-4.1,3.9-10.6,3.7-14.5-0.5c-3.9-4.1-3.7-10.6,0.5-14.5c4.1-3.9,10.6-3.7,14.5,0.5
		C123.6,282.7,123.4,289.2,119.3,293.1z"/>

		<ellipse transform="matrix(0.7293 -0.6842 0.6842 0.7293 -165.0339 154.1302)" display="inline" fill="#FFFFFF" cx="112.2" cy="285.6" rx="3.6" ry="3.6"/>
</g>
<g id="O3_Labs_Bot_-_Poolytics" display="none">
	<path display="inline" fill="#FFFFFF" d="M246.8,344.9c0.6-0.6,1-1.4,0.6-2.1c-0.4-0.7-1.3-0.8-2.1-0.6c0,0-7.1,2.4-7.5,2.6
		c-1.5,0.9-2,2.8-1.1,4.3c0.9,1.5,2.8,2,4.3,1.1C241.2,350,246.8,344.9,246.8,344.9z"/>
	<g display="inline">
		<path fill="#FFFFFF" d="M306.4,150.3L306.4,150.3c-0.4,0-0.7-0.2-0.8-0.6l-6.1-15.2l-6.1,15.2c-0.1,0.3-0.5,0.6-0.8,0.6l0,0
			c-0.4,0-0.7-0.2-0.8-0.6l-6.1-15.2l-2.6,6.6c-0.2,0.5-0.7,0.7-1.2,0.5c-0.5-0.2-0.7-0.7-0.5-1.2l3.5-8.6c0.1-0.3,0.5-0.6,0.8-0.6
			c0.4,0,0.7,0.2,0.8,0.6l6.1,15.2l6.1-15.2c0.1-0.3,0.5-0.6,0.8-0.6l0,0c0.4,0,0.7,0.2,0.8,0.6l6.1,15.2l6.1-15.2
			c0.1-0.3,0.5-0.6,0.8-0.6l0,0c0.4,0,0.7,0.2,0.8,0.6l3.5,8.6c0.2,0.5,0,1-0.5,1.2c-0.5,0.2-1,0-1.2-0.5l-2.6-6.6l-6.1,15.2
			C307.1,150.1,306.8,150.3,306.4,150.3z"/>
		<g>
			<g>
				<polygon fill="#FFFFFF" points="321.5,174.5 313.4,171.6 325,145.9 329.1,147.4 				"/>
				<circle fill="#FFFFFF" cx="329.1" cy="142.1" r="6.5"/>
			</g>
			<g>
				<polygon fill="#FFFFFF" points="277.5,174.5 285.6,171.6 274,145.9 269.9,147.4 				"/>
				<circle fill="#FFFFFF" cx="269.9" cy="142.1" r="6.5"/>
			</g>
		</g>
	</g>
	<g display="inline">

			<ellipse transform="matrix(0.1746 -0.9846 0.9846 0.1746 -150.0298 578.8987)" fill="#FFFFFF" cx="270.3" cy="378.9" rx="20.4" ry="20.4"/>
		<polygon fill="#FFFFFF" points="266.8,417.3 260.4,416.2 260.7,394.6 273.6,396.9 		"/>
		<path fill="#FFFFFF" d="M237.7,467.5c0,0-2.8-17.8,10.4-46.9h30c13.2,29.1,10.4,46.9,10.4,46.9H237.7z"/>
		<circle fill="#FFFFFF" cx="263.1" cy="422.1" r="10.7"/>
		<path fill="#FFFFFF" d="M286.1,459.3c-7.1-2.7-15.6-4.3-24.7-4.3c-16.2,0-30.4,5-38.8,12.5h63.4V459.3z"/>
	</g>
	<g display="inline">

			<ellipse transform="matrix(0.9846 -0.1746 0.1746 0.9846 -61.1089 63.2119)" fill="#FFFFFF" cx="328.7" cy="378.9" rx="20.4" ry="20.4"/>
		<polygon fill="#FFFFFF" points="332.2,417.3 338.6,416.2 338.3,394.6 325.4,396.9 		"/>
		<path fill="#FFFFFF" d="M361.3,467.5c0,0,2.8-17.8-10.4-46.9h-30c-13.2,29.1-10.4,46.9-10.4,46.9H361.3z"/>
		<circle fill="#FFFFFF" cx="335.9" cy="422.1" r="10.7"/>
		<path fill="#FFFFFF" d="M312.9,459.3c7.1-2.7,15.6-4.3,24.7-4.3c16.2,0,30.4,5,38.8,12.5h-63.4V459.3z"/>
	</g>
	<g display="inline">
		<g>

				<ellipse transform="matrix(0.3827 -0.9239 0.9239 0.3827 -138.3646 348.5251)" fill="#FFFFFF" cx="191.6" cy="277.8" rx="20.4" ry="20.4"/>
			<polygon fill="#FFFFFF" points="170.4,337.5 164.4,335 178.9,291.1 191,296.1 			"/>
		</g>
		<g>

				<ellipse transform="matrix(0.8838 -0.4679 0.4679 0.8838 -137.2641 117.3672)" fill="#FFFFFF" cx="167.6" cy="335" rx="8.7" ry="8.7"/>

				<ellipse transform="matrix(0.5038 -0.8638 0.8638 0.5038 -157.7065 221.697)" fill="#FFFFFF" cx="114.1" cy="248.1" rx="4.1" ry="4.1"/>

				<ellipse transform="matrix(0.1246 -0.9922 0.9922 0.1246 -126.992 338.2646)" fill="#FFFFFF" cx="128.2" cy="241.1" rx="4.1" ry="4.1"/>
			<polygon fill="#FFFFFF" points="105.8,262.3 132.7,273.2 124.4,287.4 101.7,269.4 			"/>

				<rect x="104.8" y="246.7" transform="matrix(0.8638 0.5038 -0.5038 0.8638 144.2844 -19.894)" fill="#FFFFFF" width="8.2" height="20.5"/>

				<rect x="128.1" y="238.3" transform="matrix(0.9922 0.1246 -0.1246 0.9922 31.2889 -15.3577)" fill="#FFFFFF" width="20.5" height="8.2"/>
			<polygon fill="#FFFFFF" points="152.6,244.2 144.5,243.1 136.8,271.1 153.1,273.2 			"/>

				<ellipse transform="matrix(0.5038 -0.8638 0.8638 0.5038 -178.1319 221.5638)" fill="#FFFFFF" cx="103.8" cy="265.8" rx="8.2" ry="8.2"/>

				<ellipse transform="matrix(0.1246 -0.9922 0.9922 0.1246 -111.7199 360.686)" fill="#FFFFFF" cx="148.6" cy="243.7" rx="8.2" ry="8.2"/>
			<path fill="#FFFFFF" d="M156.2,339l21.2-11.2c-5.1-25.3-12.6-41.9-16.7-49.7l-0.1,0c-3.1-5.3-8.6-9.2-15.2-10.1
				c-11.2-1.4-21.4,6.7-22.8,17.9c-0.5,4.1,0.1,7.9,2,11.5l0,0c0,0-0.1-0.1-0.1-0.1c0.3,0.7,0.7,1.3,1.1,2
				C130.3,307.7,139.6,322.1,156.2,339z M132.8,287.1c0.7-5.6,5.8-9.6,11.4-8.9c5.6,0.7,9.6,5.8,8.9,11.4c-0.7,5.6-5.8,9.6-11.4,8.9
				C136,297.9,132.1,292.8,132.8,287.1z"/>

				<ellipse transform="matrix(0.5038 -0.8638 0.8638 0.5038 -178.4248 266.4996)" fill="#FFFFFF" cx="142.7" cy="288.5" rx="3.6" ry="3.6"/>
		</g>
	</g>
	<g display="inline">
		<g>

				<ellipse transform="matrix(0.6213 -0.7836 0.7836 0.6213 -63.868 424.5224)" fill="#FFFFFF" cx="407.3" cy="278.3" rx="20.4" ry="20.4"/>
			<polygon fill="#FFFFFF" points="454.8,320.2 458.8,315.1 424.9,283.7 416.7,294 			"/>
		</g>
		<g>

				<ellipse transform="matrix(0.9724 -0.2331 0.2331 0.9724 -61.4702 114.9142)" fill="#FFFFFF" cx="455.4" cy="317.5" rx="8.7" ry="8.7"/>

				<ellipse transform="matrix(0.6621 -0.7494 0.7494 0.6621 -158.733 480.2419)" fill="#FFFFFF" cx="453.2" cy="416.1" rx="4.1" ry="4.1"/>

				<ellipse transform="matrix(0.7731 -0.6343 0.6343 0.7731 -155.2839 399.3278)" fill="#FFFFFF" cx="480.5" cy="416.7" rx="4.1" ry="4.1"/>
			<polygon fill="#FFFFFF" points="440.9,405.3 463,386.5 450.7,375.6 434.7,399.9 			"/>

				<rect x="441.4" y="399.1" transform="matrix(0.6621 -0.7494 0.7494 0.6621 -156.2425 472.1907)" fill="#FFFFFF" width="8.2" height="20.5"/>

				<rect x="478.1" y="406.1" transform="matrix(0.7731 -0.6343 0.6343 0.7731 -149.3607 402.8792)" fill="#FFFFFF" width="20.5" height="8.2"/>
			<polygon fill="#FFFFFF" points="499.5,401.1 493.1,406.3 471.8,386.7 484.5,376.3 			"/>

				<ellipse transform="matrix(0.6621 -0.7494 0.7494 0.6621 -153.752 464.1395)" fill="#FFFFFF" cx="437.8" cy="402.6" rx="8.2" ry="8.2"/>

				<ellipse transform="matrix(0.7731 -0.6343 0.6343 0.7731 -143.4374 406.4306)" fill="#FFFFFF" cx="496.3" cy="403.7" rx="8.2" ry="8.2"/>
			<path fill="#FFFFFF" d="M487.8,364.8L487.8,364.8c-2-8.6-7.4-25.9-20.3-48.3l-23.3,5.6c-1.2,23.7,1.3,40.7,3.2,49.9
				c0.1,0.8,0.3,1.4,0.5,2.1c0,0,0-0.1,0-0.1h0c1,4,3.1,7.3,6.2,10c8.5,7.5,21.4,6.8,28.9-1.7C487.4,377.3,489,370.8,487.8,364.8z
				 M475.4,375.5c-3.7,4.2-10.2,4.6-14.5,0.9c-4.2-3.7-4.6-10.2-0.9-14.5c3.7-4.2,10.2-4.6,14.5-0.9
				C478.7,364.8,479.1,371.3,475.4,375.5z"/>

				<ellipse transform="matrix(0.7731 -0.6343 0.6343 0.7731 -127.8112 380.3685)" fill="#FFFFFF" cx="467.7" cy="368.8" rx="3.6" ry="3.6"/>
		</g>
	</g>
	<polygon display="inline" fill="#FFFFFF" points="700.3,233 657,308 613.7,233 	"/>
	<path display="inline" fill="#FFFFFF" d="M192,171v216h216V171H192z M267.1,358h-55.4c0,0,0-0.2,0-0.3c0-15.3,12.4-27.7,27.7-27.7
		s27.7,12.5,27.7,27.7C267.1,357.8,267.1,358,267.1,358z M366.8,358c-6.2,0-11.9-3-12.1-11h6.9c0.1,3,2.4,4.8,5.1,4.8
		c3,0,5.1-2,5.1-5.4c0-3.1-1.9-5.4-5.3-5.4H366v-6h0.6c3.3,0,4.8-2,4.8-4.6c0-3.2-2.1-4.9-4.6-4.9c-2.6,0-4.5,1.5-4.7,4.5h-6.9
		c0.2-7,5.2-10.7,11.6-10.7c6.7,0,11.5,4.5,11.5,10.9c0,4.1-1.9,6.4-4.4,7.8c2.7,1.4,4.9,4.1,4.9,8.7
		C378.8,354.2,373.3,358,366.8,358z M324,185.6c0-1.9,1.1-3.4,3-3.4s3,1.5,3,3.4V214c0,1.9-1.1,3.4-3,3.4s-3-1.5-3-3.4V185.6z
		 M283,200.6c0-1.9,1.1-3.4,3-3.4c1.9,0,3,1.5,3,3.4v13.4c0,1.9-1.1,3.4-3,3.4c-1.9,0-3-1.5-3-3.4V200.6z M269,205.6
		c0-1.9,1.1-3.4,3-3.4c1.9,0,3,1.5,3,3.4v8.4c0,1.9-1.1,3.4-3,3.4c-1.9,0-3-1.5-3-3.4V205.6z M297,195.6c0-1.9,1.1-3.4,3-3.4
		c1.9,0,3,1.5,3,3.4v18.4c0,1.9-1.1,3.4-3,3.4c-1.9,0-3-1.5-3-3.4V195.6z M310,190.6c0-1.9,1.1-3.4,3-3.4c1.9,0,3,1.5,3,3.4v23.4
		c0,1.9-1.1,3.4-3,3.4c-1.9,0-3-1.5-3-3.4V190.6z M354.7,228c5.5,0,7.8,3.6,5,8.4L305,331c-2.8,4.8-7.2,4.7-10-0.1l-54.7-94.5
		c-2.8-4.8-0.5-8.4,5-8.4H354.7z"/>
	<g display="inline">
		<g>
			<g>
				<circle fill="#FFFFFF" cx="264.4" cy="244.5" r="9.7"/>
			</g>
			<g>
				<circle fill="#FFFFFF" cx="288.1" cy="244.5" r="9.7"/>
			</g>
			<g>
				<circle fill="#FFFFFF" cx="311.9" cy="244.5" r="9.7"/>
			</g>
			<g>
				<circle fill="#FFFFFF" cx="335.6" cy="244.5" r="9.7"/>
			</g>
		</g>
		<g>
			<g>
				<circle fill="#FFFFFF" cx="276.2" cy="265" r="9.7"/>
			</g>
			<g>
				<circle fill="#FFFFFF" cx="300" cy="265" r="9.7"/>
			</g>
			<g>
				<circle fill="#FFFFFF" cx="323.8" cy="265" r="9.7"/>
			</g>
		</g>
		<g>
			<g>
				<circle fill="#FFFFFF" cx="288.1" cy="285.4" r="9.7"/>
			</g>
			<g>
				<circle fill="#FFFFFF" cx="311.9" cy="285.4" r="9.7"/>
			</g>
		</g>
		<g>
			<circle fill="#FFFFFF" cx="300" cy="305.8" r="9.7"/>
		</g>
	</g>
	<g display="inline">
		<circle fill="#FFFFFF" cx="466.8" cy="420.7" r="9.7"/>
	</g>
	<g display="inline">
		<polygon fill="#FFFFFF" points="123.2,154.9 123.1,146.6 118.8,146.6 118.8,154.9 		"/>
		<polygon fill="#FFFFFF" points="124.4,327.7 123.2,160.3 118.7,160.3 117.9,327.7 		"/>
		<polygon fill="#FFFFFF" points="117.9,333.1 117.2,467.5 125.3,467.5 124.4,333.1 		"/>
	</g>
</g>
<g id="O3_Labs_Bot_-_Throwback" display="none">
	<path display="inline" fill="#FFFFFF" d="M299.7,248c-17.1,0-31,13.9-31,31c0,17.1,13.9,31,31,31c17.1,0,31-13.9,31-31
		C330.8,261.9,316.8,248,299.7,248z M299.5,288.3c-5.1,0-9.3-4.2-9.3-9.3s4.2-9.3,9.3-9.3s9.3,4.2,9.3,9.3S304.6,288.3,299.5,288.3z
		 M313.3,269.1c-2,0-3.6-1.6-3.6-3.6c0-2,1.6-3.6,3.6-3.6s3.6,1.6,3.6,3.6C316.9,267.4,315.3,269.1,313.3,269.1z"/>
	<g display="inline">
		<g>

				<ellipse transform="matrix(0.7836 -0.6213 0.6213 0.7836 -131.4295 179.3688)" fill="#FFFFFF" cx="191.7" cy="278.3" rx="20.4" ry="20.4"/>
			<polygon fill="#FFFFFF" points="144.2,320.2 140.2,315.1 174.1,283.7 182.3,294 			"/>
		</g>
		<g>

				<ellipse transform="matrix(0.2331 -0.9724 0.9724 0.2331 -198.645 383.1223)" fill="#FFFFFF" cx="143.6" cy="317.5" rx="8.7" ry="8.7"/>

				<ellipse transform="matrix(0.7494 -0.6621 0.6621 0.7494 -238.982 200.8217)" fill="#FFFFFF" cx="145.8" cy="416.1" rx="4.1" ry="4.1"/>

				<ellipse transform="matrix(0.7494 -0.6621 0.6621 0.7494 -246.2612 177.2901)" fill="#FFFFFF" cx="111.1" cy="414" rx="4.1" ry="4.1"/>
			<polygon fill="#FFFFFF" points="158.1,405.3 136,386.5 148.3,375.6 164.3,399.9 			"/>

				<rect x="149.4" y="399.1" transform="matrix(-0.6621 -0.7494 0.7494 -0.6621 -51.6394 795.423)" fill="#FFFFFF" width="8.2" height="20.5"/>

				<rect x="94.1" y="402.2" transform="matrix(-0.6621 -0.7494 0.7494 -0.6621 -131.1301 753.4926)" fill="#FFFFFF" width="20.5" height="8.2"/>
			<polygon fill="#FFFFFF" points="94.8,395.6 100.2,401.7 124.5,385.8 113.6,373.5 			"/>

				<ellipse transform="matrix(0.7494 -0.6621 0.6621 0.7494 -226.1441 207.5935)" fill="#FFFFFF" cx="161.2" cy="402.6" rx="8.2" ry="8.2"/>

				<ellipse transform="matrix(0.7494 -0.6621 0.6621 0.7494 -239.4894 164.4522)" fill="#FFFFFF" cx="97.5" cy="398.6" rx="8.2" ry="8.2"/>
			<path fill="#FFFFFF" d="M154.8,322l-23.3-5.6c-12.9,22.4-18.3,39.8-20.3,48.3l0.1,0c-1.2,6.1,0.3,12.6,4.7,17.6
				c7.5,8.5,20.5,9.1,28.9,1.6c3.1-2.7,5.1-6,6.2-10h0c0,0,0,0.1,0,0.1c0.2-0.8,0.4-1.4,0.5-2.2C153.6,362.6,156,345.7,154.8,322z
				 M138.1,376.4c-4.2,3.7-10.7,3.3-14.5-0.9c-3.7-4.2-3.3-10.7,0.9-14.5c4.2-3.7,10.7-3.3,14.5,0.9
				C142.8,366.2,142.4,372.7,138.1,376.4z"/>

				<ellipse transform="matrix(0.7494 -0.6621 0.6621 0.7494 -211.2461 179.3502)" fill="#FFFFFF" cx="131.3" cy="368.8" rx="3.6" ry="3.6"/>
		</g>
	</g>
	<g display="inline">
		<g>

				<ellipse transform="matrix(0.6213 -0.7836 0.7836 0.6213 -63.868 424.5224)" fill="#FFFFFF" cx="407.3" cy="278.3" rx="20.4" ry="20.4"/>
			<polygon fill="#FFFFFF" points="454.8,320.2 458.8,315.1 424.9,283.7 416.7,294 			"/>
		</g>
		<g>

				<ellipse transform="matrix(0.9724 -0.2331 0.2331 0.9724 -61.4702 114.9142)" fill="#FFFFFF" cx="455.4" cy="317.5" rx="8.7" ry="8.7"/>

				<ellipse transform="matrix(0.6621 -0.7494 0.7494 0.6621 -158.733 480.2419)" fill="#FFFFFF" cx="453.2" cy="416.1" rx="4.1" ry="4.1"/>

				<ellipse transform="matrix(0.6621 -0.7494 0.7494 0.6621 -145.3875 505.5421)" fill="#FFFFFF" cx="487.9" cy="414" rx="4.1" ry="4.1"/>
			<polygon fill="#FFFFFF" points="440.9,405.3 463,386.5 450.7,375.6 434.7,399.9 			"/>

				<rect x="441.4" y="399.1" transform="matrix(0.6621 -0.7494 0.7494 0.6621 -156.2425 472.1907)" fill="#FFFFFF" width="8.2" height="20.5"/>

				<rect x="484.4" y="402.2" transform="matrix(0.6621 -0.7494 0.7494 0.6621 -137.3363 508.0327)" fill="#FFFFFF" width="20.5" height="8.2"/>
			<polygon fill="#FFFFFF" points="504.2,395.6 498.8,401.7 474.5,385.8 485.4,373.5 			"/>

				<ellipse transform="matrix(0.6621 -0.7494 0.7494 0.6621 -153.752 464.1395)" fill="#FFFFFF" cx="437.8" cy="402.6" rx="8.2" ry="8.2"/>

				<ellipse transform="matrix(0.6621 -0.7494 0.7494 0.6621 -129.2851 510.5232)" fill="#FFFFFF" cx="501.5" cy="398.6" rx="8.2" ry="8.2"/>
			<path fill="#FFFFFF" d="M487.8,364.8L487.8,364.8c-2-8.6-7.4-25.9-20.3-48.3l-23.3,5.6c-1.2,23.7,1.3,40.7,3.2,49.9
				c0.1,0.8,0.3,1.4,0.5,2.1c0,0,0-0.1,0-0.1h0c1,4,3.1,7.3,6.2,10c8.5,7.5,21.4,6.8,28.9-1.7C487.4,377.3,489,370.8,487.8,364.8z
				 M475.4,375.5c-3.7,4.2-10.2,4.6-14.5,0.9c-4.2-3.7-4.6-10.2-0.9-14.5c3.7-4.2,10.2-4.6,14.5-0.9
				C478.7,364.8,479.1,371.3,475.4,375.5z"/>

				<ellipse transform="matrix(0.6621 -0.7494 0.7494 0.6621 -118.3267 475.0979)" fill="#FFFFFF" cx="467.7" cy="368.8" rx="3.6" ry="3.6"/>
		</g>
	</g>
	<g display="inline">
		<path fill="#FFFFFF" d="M358.6,161.1c0,1.9-1.5,3.4-3.4,3.4H244.8c-1.9,0-3.4-1.5-3.4-3.4V156c0-1.9,1.5-3.4,3.4-3.4h110.4
			c1.9,0,3.4,1.5,3.4,3.4V161.1z"/>
		<path fill="#FFFFFF" d="M341.3,157.7v-18.6c0-20.2-16.4-36.6-36.6-36.6h-9.4c-20.2,0-36.6,16.4-36.6,36.6v18.6H341.3z"/>
	</g>
	<path display="inline" fill="#FFFFFF" d="M192,171v216h216V171H192z M326.4,197.3c1.9,0,3.4,1.5,3.4,3.4c0,1.9-1.5,3.4-3.4,3.4
		c-1.9,0-3.4-1.5-3.4-3.4C323,198.8,324.5,197.3,326.4,197.3z M310,193.9c0-1.9,1.1-3.4,3-3.4s3,1.5,3,3.4v13.4c0,1.9-1.1,3.4-3,3.4
		s-3-1.5-3-3.4V193.9z M296,187.2c0-1.9,1.6-3.4,3.5-3.4c1.9,0,3.5,1.5,3.5,3.4v26.9c0,1.9-1.6,3.4-3.5,3.4c-1.9,0-3.5-1.5-3.5-3.4
		V187.2z M283,193.9c0-1.9,1.1-3.4,3-3.4c1.9,0,3,1.5,3,3.4v13.4c0,1.9-1.1,3.4-3,3.4c-1.9,0-3-1.5-3-3.4V193.9z M272.6,197.3
		c1.9,0,3.4,1.5,3.4,3.4c0,1.9-1.5,3.4-3.4,3.4s-3.4-1.5-3.4-3.4C269.3,198.8,270.8,197.3,272.6,197.3z M223.6,378
		c-1.9,0-3.4-1.5-3.4-3.4c0-1.9,1.5-3.4,3.4-3.4s3.4,1.5,3.4,3.4C227,376.5,225.5,378,223.6,378z M223.6,366.4
		c-1.9,0-3.4-1.5-3.4-3.4c0-1.9,1.5-3.4,3.4-3.4s3.4,1.5,3.4,3.4C227,364.9,225.5,366.4,223.6,366.4z M223.6,354.9
		c-1.9,0-3.4-1.5-3.4-3.4c0-1.9,1.5-3.4,3.4-3.4s3.4,1.5,3.4,3.4C227,353.4,225.5,354.9,223.6,354.9z M223.6,343.3
		c-1.9,0-3.4-1.5-3.4-3.4c0-1.9,1.5-3.4,3.4-3.4s3.4,1.5,3.4,3.4C227,341.8,225.5,343.3,223.6,343.3z M223.6,331.7
		c-1.9,0-3.4-1.5-3.4-3.4c0-1.9,1.5-3.4,3.4-3.4s3.4,1.5,3.4,3.4C227,330.2,225.5,331.7,223.6,331.7z M223.6,320.2
		c-1.9,0-3.4-1.5-3.4-3.4c0-1.9,1.5-3.4,3.4-3.4s3.4,1.5,3.4,3.4C227,318.7,225.5,320.2,223.6,320.2z M223.6,308.6
		c-1.9,0-3.4-1.5-3.4-3.4c0-1.9,1.5-3.4,3.4-3.4s3.4,1.5,3.4,3.4C227,307.1,225.5,308.6,223.6,308.6z M223.6,297
		c-1.9,0-3.4-1.5-3.4-3.4c0-1.9,1.5-3.4,3.4-3.4s3.4,1.5,3.4,3.4C227,295.5,225.5,297,223.6,297z M229.6,287c-1.9,0-3.4-1.5-3.4-3.4
		c0-1.9,1.5-3.4,3.4-3.4s3.4,1.5,3.4,3.4C233,285.5,231.5,287,229.6,287z M239.6,282c-1.9,0-3.4-1.5-3.4-3.4c0-1.9,1.5-3.4,3.4-3.4
		s3.4,1.5,3.4,3.4C243,280.5,241.5,282,239.6,282z M306.5,363.9c-2.7-0.4-5-1.9-6.5-4c-1.5,2.1-3.8,3.6-6.5,4c-7.3,2-26,5-36.9-12.4
		c0,0,6.9,7.2,15.4,3.8c8.1-3.3,12.3-9.7,19-10.3c0.3,0,0.7-0.1,1.1-0.1c3.3,0,6.2,1.6,7.9,4.1c1.7-2.5,4.6-4.1,7.9-4.1
		c0.4,0,0.7,0,1.1,0.1c6.7,0.6,10.9,7,19,10.3c8.5,3.5,15.4-3.8,15.4-3.8C332.4,368.9,313.7,365.9,306.5,363.9z M299.7,330.9
		c-28.6,0-51.9-23.3-51.9-51.9s23.3-51.9,51.9-51.9s51.9,23.3,51.9,51.9S328.4,330.9,299.7,330.9z M366.8,358c-6.2,0-11.9-3-12.1-11
		h6.9c0.1,3,2.4,4.8,5.1,4.8c3,0,5.1-2,5.1-5.4c0-3.1-1.9-5.4-5.3-5.4H366v-6h0.6c3.3,0,4.8-2,4.8-4.6c0-3.2-2.1-4.9-4.6-4.9
		c-2.6,0-4.5,1.5-4.7,4.5h-6.9c0.2-7,5.2-10.7,11.6-10.7c6.7,0,11.5,4.5,11.5,10.9c0,4.1-1.9,6.4-4.4,7.8c2.7,1.4,4.9,4.1,4.9,8.7
		C378.8,354.2,373.3,358,366.8,358z"/>
	<g display="inline">
		<path fill="#FFFFFF" d="M250.1,376c-1.3,8.7,3.2,17,10.6,20.9l-0.2,14.8c-4.2,1.1-7.4,4.6-8,8.9h-4.4c-7.8,17.2-10,30.4-10.5,38.4
			c-5.9,2.1-11,5.1-14.9,8.5h15h48.4h2.3c0,0,2.8-17.8-10.4-46.9h-4.4c-0.5-3.4-2.5-6.3-5.4-7.9l4.5-13.5
			c8.6-1.1,15.9-7.7,17.5-16.7c0.4-2.2,0.4-4.4,0.1-6.5H250.1z"/>
		<path fill="#FFFFFF" d="M361.4,459c-0.5-8-2.7-21.2-10.5-38.4h-4.4c-0.6-4.3-3.8-7.8-8-8.9l-0.2-14.8c7.4-4,11.8-12.2,10.6-20.9
			h-40.4c-0.3,2.1-0.3,4.3,0.1,6.5c1.6,9,8.9,15.6,17.5,16.7l4.5,13.5c-2.9,1.6-4.9,4.5-5.4,7.9h-4.4
			c-13.2,29.1-10.4,46.9-10.4,46.9h2.3h48.4h15C372.5,464,367.4,461.1,361.4,459z"/>
	</g>
</g>
<g id="O3_Labs_Bot_-_Moods">
	<g>
		<g>

				<ellipse transform="matrix(0.1746 -0.9846 0.9846 0.1746 -150.0298 578.8987)" fill="#FFFFFF" cx="270.3" cy="378.9" rx="20.4" ry="20.4"/>
			<polygon fill="#FFFFFF" points="266.8,417.3 260.4,416.2 260.7,394.6 273.6,396.9 			"/>
			<path fill="#FFFFFF" d="M237.7,467.5c0,0-2.8-17.8,10.4-46.9h30c13.2,29.1,10.4,46.9,10.4,46.9H237.7z"/>
			<circle fill="#FFFFFF" cx="263.1" cy="422.1" r="10.7"/>
			<path fill="#FFFFFF" d="M286.1,459.3c-7.1-2.7-15.6-4.3-24.7-4.3c-16.2,0-30.4,5-38.8,12.5h63.4V459.3z"/>
		</g>
		<g>

				<ellipse transform="matrix(0.9846 -0.1746 0.1746 0.9846 -61.1089 63.2119)" fill="#FFFFFF" cx="328.7" cy="378.9" rx="20.4" ry="20.4"/>
			<polygon fill="#FFFFFF" points="332.2,417.3 338.6,416.2 338.3,394.6 325.4,396.9 			"/>
			<path fill="#FFFFFF" d="M361.3,467.5c0,0,2.8-17.8-10.4-46.9h-30c-13.2,29.1-10.4,46.9-10.4,46.9H361.3z"/>
			<circle fill="#FFFFFF" cx="335.9" cy="422.1" r="10.7"/>
			<path fill="#FFFFFF" d="M312.9,459.3c7.1-2.7,15.6-4.3,24.7-4.3c16.2,0,30.4,5,38.8,12.5h-63.4V459.3z"/>
		</g>
	</g>
	<g>
		<g>

				<ellipse transform="matrix(0.6213 -0.7836 0.7836 0.6213 -63.868 424.5224)" fill="#FFFFFF" cx="407.3" cy="278.3" rx="20.4" ry="20.4"/>
			<polygon fill="#FFFFFF" points="454.8,320.2 458.8,315.1 424.9,283.7 416.7,294 			"/>
		</g>
		<g>

				<ellipse transform="matrix(0.9724 -0.2331 0.2331 0.9724 -61.4702 114.9142)" fill="#FFFFFF" cx="455.4" cy="317.5" rx="8.7" ry="8.7"/>

				<ellipse transform="matrix(0.6621 -0.7494 0.7494 0.6621 -158.733 480.2419)" fill="#FFFFFF" cx="453.2" cy="416.1" rx="4.1" ry="4.1"/>

				<ellipse transform="matrix(0.6621 -0.7494 0.7494 0.6621 -145.3875 505.5421)" fill="#FFFFFF" cx="487.9" cy="414" rx="4.1" ry="4.1"/>
			<polygon fill="#FFFFFF" points="440.9,405.3 463,386.5 450.7,375.6 434.7,399.9 			"/>

				<rect x="441.4" y="399.1" transform="matrix(0.6621 -0.7494 0.7494 0.6621 -156.2425 472.1907)" fill="#FFFFFF" width="8.2" height="20.5"/>

				<rect x="484.4" y="402.2" transform="matrix(0.6621 -0.7494 0.7494 0.6621 -137.3363 508.0327)" fill="#FFFFFF" width="20.5" height="8.2"/>
			<polygon fill="#FFFFFF" points="504.2,395.6 498.8,401.7 474.5,385.8 485.4,373.5 			"/>

				<ellipse transform="matrix(0.6621 -0.7494 0.7494 0.6621 -153.752 464.1395)" fill="#FFFFFF" cx="437.8" cy="402.6" rx="8.2" ry="8.2"/>

				<ellipse transform="matrix(0.6621 -0.7494 0.7494 0.6621 -129.2851 510.5232)" fill="#FFFFFF" cx="501.5" cy="398.6" rx="8.2" ry="8.2"/>
			<path fill="#FFFFFF" d="M487.8,364.8L487.8,364.8c-2-8.6-7.4-25.9-20.3-48.3l-23.3,5.6c-1.2,23.7,1.3,40.7,3.2,49.9
				c0.1,0.8,0.3,1.4,0.5,2.1c0,0,0-0.1,0-0.1h0c1,4,3.1,7.3,6.2,10c8.5,7.5,21.4,6.8,28.9-1.7C487.4,377.3,489,370.8,487.8,364.8z
				 M475.4,375.5c-3.7,4.2-10.2,4.6-14.5,0.9c-4.2-3.7-4.6-10.2-0.9-14.5c3.7-4.2,10.2-4.6,14.5-0.9
				C478.7,364.8,479.1,371.3,475.4,375.5z"/>

				<ellipse transform="matrix(0.6621 -0.7494 0.7494 0.6621 -118.3267 475.0979)" fill="#FFFFFF" cx="467.7" cy="368.8" rx="3.6" ry="3.6"/>
		</g>
	</g>
	<g>

			<ellipse transform="matrix(0.6563 -0.7545 0.7545 0.6563 -144.0451 240.3514)" fill="#FFFFFF" cx="191.8" cy="278.3" rx="20.4" ry="20.4"/>
		<polygon fill="#FFFFFF" points="152.7,328.1 147.9,323.9 175.5,286.8 185.4,295.4 		"/>
	</g>

		<ellipse transform="matrix(0.7643 -0.6448 0.6448 0.7643 -175.4757 171.1425)" fill="#FFFFFF" cx="146.4" cy="325.6" rx="8.7" ry="8.7"/>

		<ellipse transform="matrix(0.6621 -0.7494 0.7494 0.6621 -148.9849 150.2557)" fill="#FFFFFF" cx="92.1" cy="240.4" rx="4.1" ry="4.1"/>

		<ellipse transform="matrix(0.7293 -0.6841 0.6841 0.7293 -128.587 154.593)" fill="#FFFFFF" cx="131.1" cy="239.8" rx="4.1" ry="4.1"/>
	<polygon fill="#FFFFFF" points="81.3,252.6 105.5,268.6 94.6,280.9 75.9,258.8 	"/>

		<rect x="81.3" y="237.8" transform="matrix(0.7494 0.6621 -0.6621 0.7494 185.6278 5.646)" fill="#FFFFFF" width="8.2" height="20.5"/>

		<rect x="127.9" y="243.2" transform="matrix(0.6841 0.7293 -0.7293 0.6841 223.9809 -22.6188)" fill="#FFFFFF" width="20.5" height="8.2"/>
	<polygon fill="#FFFFFF" points="147.9,257.8 142.3,251.8 118.6,268.4 129.8,280.4 	"/>

		<ellipse transform="matrix(0.6621 -0.7494 0.7494 0.6621 -165.0854 145.2732)" fill="#FFFFFF" cx="78.6" cy="255.7" rx="8.2" ry="8.2"/>

		<ellipse transform="matrix(0.7293 -0.6841 0.6841 0.7293 -135.0211 168.2368)" fill="#FFFFFF" cx="145.1" cy="254.8" rx="8.2" ry="8.2"/>
	<path fill="#FFFFFF" d="M127.6,271.5l-0.2,0.2c-0.5-0.5-1-1-1.5-1.4c-8.5-7.5-21.4-6.7-28.9,1.8s-6.7,21.4,1.8,28.9
		c0.1,0.1,0.3,0.2,0.4,0.3c6.6,7.2,18.5,18.5,36.9,30.7l18.3-15.5C144,292.9,133.2,278.3,127.6,271.5z M119.3,293.1
		c-4.1,3.9-10.6,3.7-14.5-0.5c-3.9-4.1-3.7-10.6,0.5-14.5c4.1-3.9,10.6-3.7,14.5,0.5C123.6,282.7,123.4,289.2,119.3,293.1z"/>

		<ellipse transform="matrix(0.7293 -0.6842 0.6842 0.7293 -165.0339 154.1302)" fill="#FFFFFF" cx="112.2" cy="285.6" rx="3.6" ry="3.6"/>
	<g>
		<path fill="#FFFFFF" d="M306.4,150.3L306.4,150.3c-0.4,0-0.7-0.2-0.8-0.6l-6.1-15.2l-6.1,15.2c-0.1,0.3-0.5,0.6-0.8,0.6l0,0
			c-0.4,0-0.7-0.2-0.8-0.6l-6.1-15.2l-2.6,6.6c-0.2,0.5-0.7,0.7-1.2,0.5c-0.5-0.2-0.7-0.7-0.5-1.2l3.5-8.6c0.1-0.3,0.5-0.6,0.8-0.6
			c0.4,0,0.7,0.2,0.8,0.6l6.1,15.2l6.1-15.2c0.1-0.3,0.5-0.6,0.8-0.6l0,0c0.4,0,0.7,0.2,0.8,0.6l6.1,15.2l6.1-15.2
			c0.1-0.3,0.5-0.6,0.8-0.6l0,0c0.4,0,0.7,0.2,0.8,0.6l3.5,8.6c0.2,0.5,0,1-0.5,1.2c-0.5,0.2-1,0-1.2-0.5l-2.6-6.6l-6.1,15.2
			C307.1,150.1,306.8,150.3,306.4,150.3z"/>
		<g>
			<g>
				<polygon fill="#FFFFFF" points="321.5,174.5 313.4,171.6 325,145.9 329.1,147.4 				"/>
				<circle fill="#FFFFFF" cx="329.1" cy="142.1" r="6.5"/>
			</g>
			<g>
				<polygon fill="#FFFFFF" points="277.5,174.5 285.6,171.6 274,145.9 269.9,147.4 				"/>
				<circle fill="#FFFFFF" cx="269.9" cy="142.1" r="6.5"/>
			</g>
		</g>
	</g>
	<path fill="#FFFFFF" d="M111.1,135.9c-19.1,0-34.6,15.4-34.6,34.5c0,2.7,0.3,5.3,0.9,7.8c2,9.5,10.8,23.1,14.9,32.2
		C95.7,217.9,96,226,96,226h30.2c0,0,0.3-8.1,3.7-15.5c4.1-9.1,12.9-22.7,14.9-32.2c0.6-2.5,0.9-5.1,0.9-7.8
		C145.7,151.4,130.2,135.9,111.1,135.9z M126.3,179.6c-0.2,0.4-0.5,0.7-0.9,0.9c-0.9,0.3-1.9-0.1-2.2-1l-1.1-2.9l-3.9,9.7
		c-0.3,0.7-0.9,1.1-1.6,1.1c-0.7,0-1.3-0.4-1.6-1.1l-3.9-9.7l-3.9,9.7c-0.3,0.7-0.9,1.1-1.6,1.1c-0.7,0-1.3-0.4-1.6-1.1l-3.9-9.7
		l-1.1,2.9c-0.3,0.9-1.4,1.3-2.2,1c-0.9-0.3-1.3-1.3-1-2.2l2.7-6.8c0.3-0.7,0.9-1.1,1.6-1.1c0.7,0,1.3,0.4,1.6,1.1l3.9,9.7l3.9-9.7
		c0.3-0.7,0.9-1.1,1.6-1.1c0.7,0,1.3,0.4,1.6,1.1l3.9,9.7l3.9-9.7c0.3-0.7,0.9-1.1,1.6-1.1c0.7,0,1.3,0.4,1.6,1.1l2.7,6.8
		C126.5,178.7,126.4,179.2,126.3,179.6z"/>
	<g>
		<path fill="#FFFFFF" d="M112,95c-1.3,0-2.3,1.1-2.3,2.3v18.8c0,1.3,1.1,2.3,2.3,2.3s2.3-1.1,2.3-2.3V97.4
			C114.4,96.1,113.3,95,112,95z"/>
	</g>
	<g>
		<g>
			<path fill="#FFFFFF" d="M72.3,105.7c-1.1,0.6-1.5,2.1-0.9,3.2l9.4,16.3c0.6,1.1,2.1,1.5,3.2,0.9c1.1-0.6,1.5-2.1,0.9-3.2
				l-9.4-16.3C74.8,105.4,73.4,105,72.3,105.7z"/>
		</g>
		<g>
			<path fill="#FFFFFF" d="M43.1,139.3c-0.6,1.1-0.3,2.6,0.9,3.2l16.3,9.4c1.1,0.6,2.6,0.3,3.2-0.9s0.3-2.6-0.9-3.2l-16.3-9.4
				C45.2,137.8,43.8,138.2,43.1,139.3z"/>
		</g>
	</g>
	<g>
		<g>
			<path fill="#FFFFFF" d="M151.8,105.7c1.1,0.6,1.5,2.1,0.9,3.2l-9.4,16.3c-0.6,1.1-2.1,1.5-3.2,0.9c-1.1-0.6-1.5-2.1-0.9-3.2
				l9.4-16.3C149.2,105.4,150.7,105,151.8,105.7z"/>
		</g>
		<g>
			<path fill="#FFFFFF" d="M180.9,139.3c0.6,1.1,0.3,2.6-0.9,3.2l-16.3,9.4c-1.1,0.6-2.6,0.3-3.2-0.9s-0.3-2.6,0.9-3.2l16.3-9.4
				C178.8,137.8,180.3,138.2,180.9,139.3z"/>
		</g>
	</g>
	<path fill="#FFFFFF" d="M100,252.9c0,1.2,1,2.2,2.2,2.2H120c1.2,0,2.2-1,2.2-2.2s-1-2.2-2.2-2.2h-17.9
		C101,250.8,100,251.7,100,252.9z"/>
	<path fill="#FFFFFF" d="M96.3,235.9c0.1,1.2,1.2,2.1,2.4,1.9L124,235c1.2-0.1,2.1-1.2,1.9-2.4c-0.1-1.2-1.2-2.1-2.4-1.9l-25.4,2.9
		C97,233.7,96.1,234.8,96.3,235.9z"/>
	<path fill="#FFFFFF" d="M96.3,245.1c0.1,1.2,1.2,2.1,2.4,1.9l25.4-2.9c1.2-0.1,2.1-1.2,1.9-2.4c-0.1-1.2-1.2-2.1-2.4-1.9l-25.4,2.9
		C97,242.8,96.1,243.9,96.3,245.1z"/>
	<path fill="#FFFFFF" d="M300,238.9c22.2,0,40.1,18,40.1,40.1c0,22.2-18,40.1-40.1,40.1c-22.2,0-40.1-18-40.1-40.1
		C259.9,256.8,277.8,238.9,300,238.9z M304,273.1l20.1,27c4.9-5.6,7.9-13,7.9-21.1c0-16.3-12.2-29.8-28-31.7V273.1z M318.1,305.4
		L304,286.5v24.3C309.2,310.1,314,308.2,318.1,305.4z M296,286.5l-14.1,18.9c4.1,2.8,8.9,4.7,14.1,5.4V286.5z M275.9,300l20.1-27
		v-25.8c-15.8,2-28,15.4-28,31.7C268,287.1,271,294.4,275.9,300z"/>
	<path fill="#FFFFFF" d="M192,171v216h216V171H192z M326.4,197.3c1.9,0,3.4,1.5,3.4,3.4c0,1.9-1.5,3.4-3.4,3.4
		c-1.9,0-3.4-1.5-3.4-3.4C323,198.8,324.5,197.3,326.4,197.3z M310,193.9c0-1.9,1.1-3.4,3-3.4s3,1.5,3,3.4v13.4c0,1.9-1.1,3.4-3,3.4
		s-3-1.5-3-3.4V193.9z M296,187.2c0-1.9,1.6-3.4,3.5-3.4c1.9,0,3.5,1.5,3.5,3.4v26.9c0,1.9-1.6,3.4-3.5,3.4c-1.9,0-3.5-1.5-3.5-3.4
		V187.2z M283,193.9c0-1.9,1.1-3.4,3-3.4c1.9,0,3,1.5,3,3.4v13.4c0,1.9-1.1,3.4-3,3.4c-1.9,0-3-1.5-3-3.4V193.9z M272.6,197.3
		c1.9,0,3.4,1.5,3.4,3.4c0,1.9-1.5,3.4-3.4,3.4s-3.4-1.5-3.4-3.4C269.3,198.8,270.8,197.3,272.6,197.3z M267.1,358h-55.4
		c0,0,0-0.2,0-0.3c0-15.3,12.4-27.7,27.7-27.7s27.7,12.5,27.7,27.7C267.1,357.8,267.1,358,267.1,358z M299.7,330.9
		c-28.6,0-51.9-23.3-51.9-51.9s23.3-51.9,51.9-51.9s51.9,23.3,51.9,51.9S328.4,330.9,299.7,330.9z M366.8,358c-6.2,0-11.9-3-12.1-11
		h6.9c0.1,3,2.4,4.8,5.1,4.8c3,0,5.1-2,5.1-5.4c0-3.1-1.9-5.4-5.3-5.4H366v-6h0.6c3.3,0,4.8-2,4.8-4.6c0-3.2-2.1-4.9-4.6-4.9
		c-2.6,0-4.5,1.5-4.7,4.5h-6.9c0.2-7,5.2-10.7,11.6-10.7c6.7,0,11.5,4.5,11.5,10.9c0,4.1-1.9,6.4-4.4,7.8c2.7,1.4,4.9,4.1,4.9,8.7
		C378.8,354.2,373.3,358,366.8,358z"/>
	<path fill="#FFFFFF" d="M238.6,339.9c-0.4-0.7-1.1-1.3-2-1s-1.1,1.1-1,2c0,0,0.8,7.5,0.9,7.9c0.5,1.6,2.3,2.5,3.9,2s2.5-2.3,2-3.9
		C242.3,346.4,238.6,339.9,238.6,339.9z"/>
</g>
</svg>
