<?xml version="1.0" encoding="utf-8"?>
<!-- Generator: Adobe Illustrator 21.0.0, SVG Export Plug-In . SVG Version: 6.00 Build 0)  -->
<svg  version="1.1" xmlns="http://www.w3.org/2000/svg" xmlns:xlink="http://www.w3.org/1999/xlink" x="0px" y="0px" width="150px"
	 height="150px" viewBox="0 0 600 600" enable-background="new 0 0 600 600" xml:space="preserve">
<g id="O3_Labs_Bot_-_Moods">
	<g>
		<g>

				<ellipse transform="matrix(0.1746 -0.9846 0.9846 0.1746 -150.0298 578.8987)" fill="#4A4A4A" cx="270.3" cy="378.9" rx="20.4" ry="20.4"/>
			<polygon fill="#4A4A4A" points="266.8,417.3 260.4,416.2 260.7,394.6 273.6,396.9 			"/>
			<path fill="#4A4A4A" d="M237.7,467.5c0,0-2.8-17.8,10.4-46.9h30c13.2,29.1,10.4,46.9,10.4,46.9H237.7z"/>
			<circle fill="#4A4A4A" cx="263.1" cy="422.1" r="10.7"/>
			<path fill="#4A4A4A" d="M286.1,459.3c-7.1-2.7-15.6-4.3-24.7-4.3c-16.2,0-30.4,5-38.8,12.5h63.4V459.3z"/>
		</g>
		<g>

				<ellipse transform="matrix(0.9846 -0.1746 0.1746 0.9846 -61.1089 63.2119)" fill="#4A4A4A" cx="328.7" cy="378.9" rx="20.4" ry="20.4"/>
			<polygon fill="#4A4A4A" points="332.2,417.3 338.6,416.2 338.3,394.6 325.4,396.9 			"/>
			<path fill="#4A4A4A" d="M361.3,467.5c0,0,2.8-17.8-10.4-46.9h-30c-13.2,29.1-10.4,46.9-10.4,46.9H361.3z"/>
			<circle fill="#4A4A4A" cx="335.9" cy="422.1" r="10.7"/>
			<path fill="#4A4A4A" d="M312.9,459.3c7.1-2.7,15.6-4.3,24.7-4.3c16.2,0,30.4,5,38.8,12.5h-63.4V459.3z"/>
		</g>
	</g>
	<g>
		<g>

				<ellipse transform="matrix(0.6213 -0.7836 0.7836 0.6213 -63.868 424.5224)" fill="#4A4A4A" cx="407.3" cy="278.3" rx="20.4" ry="20.4"/>
			<polygon fill="#4A4A4A" points="454.8,320.2 458.8,315.1 424.9,283.7 416.7,294 			"/>
		</g>
		<g>

				<ellipse transform="matrix(0.9724 -0.2331 0.2331 0.9724 -61.4702 114.9142)" fill="#4A4A4A" cx="455.4" cy="317.5" rx="8.7" ry="8.7"/>

				<ellipse transform="matrix(0.6621 -0.7494 0.7494 0.6621 -158.733 480.2419)" fill="#4A4A4A" cx="453.2" cy="416.1" rx="4.1" ry="4.1"/>

				<ellipse transform="matrix(0.6621 -0.7494 0.7494 0.6621 -145.3875 505.5421)" fill="#4A4A4A" cx="487.9" cy="414" rx="4.1" ry="4.1"/>
			<polygon fill="#4A4A4A" points="440.9,405.3 463,386.5 450.7,375.6 434.7,399.9 			"/>

				<rect x="441.4" y="399.1" transform="matrix(0.6621 -0.7494 0.7494 0.6621 -156.2425 472.1907)" fill="#4A4A4A" width="8.2" height="20.5"/>

				<rect x="484.4" y="402.2" transform="matrix(0.6621 -0.7494 0.7494 0.6621 -137.3363 508.0327)" fill="#4A4A4A" width="20.5" height="8.2"/>
			<polygon fill="#4A4A4A" points="504.2,395.6 498.8,401.7 474.5,385.8 485.4,373.5 			"/>

				<ellipse transform="matrix(0.6621 -0.7494 0.7494 0.6621 -153.752 464.1395)" fill="#4A4A4A" cx="437.8" cy="402.6" rx="8.2" ry="8.2"/>

				<ellipse transform="matrix(0.6621 -0.7494 0.7494 0.6621 -129.2851 510.5232)" fill="#4A4A4A" cx="501.5" cy="398.6" rx="8.2" ry="8.2"/>
			<path fill="#4A4A4A" d="M487.8,364.8L487.8,364.8c-2-8.6-7.4-25.9-20.3-48.3l-23.3,5.6c-1.2,23.7,1.3,40.7,3.2,49.9
				c0.1,0.8,0.3,1.4,0.5,2.1c0,0,0-0.1,0-0.1h0c1,4,3.1,7.3,6.2,10c8.5,7.5,21.4,6.8,28.9-1.7C487.4,377.3,489,370.8,487.8,364.8z
				 M475.4,375.5c-3.7,4.2-10.2,4.6-14.5,0.9c-4.2-3.7-4.6-10.2-0.9-14.5c3.7-4.2,10.2-4.6,14.5-0.9
				C478.7,364.8,479.1,371.3,475.4,375.5z"/>

				<ellipse transform="matrix(0.6621 -0.7494 0.7494 0.6621 -118.3267 475.0979)" fill="#4A4A4A" cx="467.7" cy="368.8" rx="3.6" ry="3.6"/>
		</g>
	</g>
	<g>

			<ellipse transform="matrix(0.6563 -0.7545 0.7545 0.6563 -144.0451 240.3514)" fill="#4A4A4A" cx="191.8" cy="278.3" rx="20.4" ry="20.4"/>
		<polygon fill="#4A4A4A" points="152.7,328.1 147.9,323.9 175.5,286.8 185.4,295.4 		"/>
	</g>

		<ellipse transform="matrix(0.7643 -0.6448 0.6448 0.7643 -175.4757 171.1425)" fill="#4A4A4A" cx="146.4" cy="325.6" rx="8.7" ry="8.7"/>

		<ellipse transform="matrix(0.6621 -0.7494 0.7494 0.6621 -148.9849 150.2557)" fill="#4A4A4A" cx="92.1" cy="240.4" rx="4.1" ry="4.1"/>

		<ellipse transform="matrix(0.7293 -0.6841 0.6841 0.7293 -128.587 154.593)" fill="#4A4A4A" cx="131.1" cy="239.8" rx="4.1" ry="4.1"/>
	<polygon fill="#4A4A4A" points="81.3,252.6 105.5,268.6 94.6,280.9 75.9,258.8 	"/>

		<rect x="81.3" y="237.8" transform="matrix(0.7494 0.6621 -0.6621 0.7494 185.6278 5.646)" fill="#4A4A4A" width="8.2" height="20.5"/>

		<rect x="127.9" y="243.2" transform="matrix(0.6841 0.7293 -0.7293 0.6841 223.9809 -22.6188)" fill="#4A4A4A" width="20.5" height="8.2"/>
	<polygon fill="#4A4A4A" points="147.9,257.8 142.3,251.8 118.6,268.4 129.8,280.4 	"/>

		<ellipse transform="matrix(0.6621 -0.7494 0.7494 0.6621 -165.0854 145.2732)" fill="#4A4A4A" cx="78.6" cy="255.7" rx="8.2" ry="8.2"/>

		<ellipse transform="matrix(0.7293 -0.6841 0.6841 0.7293 -135.0211 168.2368)" fill="#4A4A4A" cx="145.1" cy="254.8" rx="8.2" ry="8.2"/>
	<path fill="#4A4A4A" d="M127.6,271.5l-0.2,0.2c-0.5-0.5-1-1-1.5-1.4c-8.5-7.5-21.4-6.7-28.9,1.8s-6.7,21.4,1.8,28.9
		c0.1,0.1,0.3,0.2,0.4,0.3c6.6,7.2,18.5,18.5,36.9,30.7l18.3-15.5C144,292.9,133.2,278.3,127.6,271.5z M119.3,293.1
		c-4.1,3.9-10.6,3.7-14.5-0.5c-3.9-4.1-3.7-10.6,0.5-14.5c4.1-3.9,10.6-3.7,14.5,0.5C123.6,282.7,123.4,289.2,119.3,293.1z"/>

		<ellipse transform="matrix(0.7293 -0.6842 0.6842 0.7293 -165.0339 154.1302)" fill="#4A4A4A" cx="112.2" cy="285.6" rx="3.6" ry="3.6"/>
	<g>
		<path fill="#4A4A4A" d="M306.4,150.3L306.4,150.3c-0.4,0-0.7-0.2-0.8-0.6l-6.1-15.2l-6.1,15.2c-0.1,0.3-0.5,0.6-0.8,0.6l0,0
			c-0.4,0-0.7-0.2-0.8-0.6l-6.1-15.2l-2.6,6.6c-0.2,0.5-0.7,0.7-1.2,0.5c-0.5-0.2-0.7-0.7-0.5-1.2l3.5-8.6c0.1-0.3,0.5-0.6,0.8-0.6
			c0.4,0,0.7,0.2,0.8,0.6l6.1,15.2l6.1-15.2c0.1-0.3,0.5-0.6,0.8-0.6l0,0c0.4,0,0.7,0.2,0.8,0.6l6.1,15.2l6.1-15.2
			c0.1-0.3,0.5-0.6,0.8-0.6l0,0c0.4,0,0.7,0.2,0.8,0.6l3.5,8.6c0.2,0.5,0,1-0.5,1.2c-0.5,0.2-1,0-1.2-0.5l-2.6-6.6l-6.1,15.2
			C307.1,150.1,306.8,150.3,306.4,150.3z"/>
		<g>
			<g>
				<polygon fill="#4A4A4A" points="321.5,174.5 313.4,171.6 325,145.9 329.1,147.4 				"/>
				<circle fill="#4A4A4A" cx="329.1" cy="142.1" r="6.5"/>
			</g>
			<g>
				<polygon fill="#4A4A4A" points="277.5,174.5 285.6,171.6 274,145.9 269.9,147.4 				"/>
				<circle fill="#4A4A4A" cx="269.9" cy="142.1" r="6.5"/>
			</g>
		</g>
	</g>
	<g  fill="#4A4A4A">
		<path style="fill:rgb({{moodHue.red}}, {{moodHue.green}}, {{moodHue.blue}})" d="M111.1,135.9c-19.1,0-34.6,15.4-34.6,34.5c0,2.7,0.3,5.3,0.9,7.8c2,9.5,10.8,23.1,14.9,32.2
			C95.7,217.9,96,226,96,226h30.2c0,0,0.3-8.1,3.7-15.5c4.1-9.1,12.9-22.7,14.9-32.2c0.6-2.5,0.9-5.1,0.9-7.8
			C145.7,151.4,130.2,135.9,111.1,135.9z M126.3,179.6c-0.2,0.4-0.5,0.7-0.9,0.9c-0.9,0.3-1.9-0.1-2.2-1l-1.1-2.9l-3.9,9.7
			c-0.3,0.7-0.9,1.1-1.6,1.1c-0.7,0-1.3-0.4-1.6-1.1l-3.9-9.7l-3.9,9.7c-0.3,0.7-0.9,1.1-1.6,1.1c-0.7,0-1.3-0.4-1.6-1.1l-3.9-9.7
			l-1.1,2.9c-0.3,0.9-1.4,1.3-2.2,1c-0.9-0.3-1.3-1.3-1-2.2l2.7-6.8c0.3-0.7,0.9-1.1,1.6-1.1c0.7,0,1.3,0.4,1.6,1.1l3.9,9.7l3.9-9.7
			c0.3-0.7,0.9-1.1,1.6-1.1c0.7,0,1.3,0.4,1.6,1.1l3.9,9.7l3.9-9.7c0.3-0.7,0.9-1.1,1.6-1.1c0.7,0,1.3,0.4,1.6,1.1l2.7,6.8
			C126.5,178.7,126.4,179.2,126.3,179.6z"/>
	</g>
	<g>
		<path fill="#4A4A4A" d="M112,95c-1.3,0-2.3,1.1-2.3,2.3v18.8c0,1.3,1.1,2.3,2.3,2.3s2.3-1.1,2.3-2.3V97.4
			C114.4,96.1,113.3,95,112,95z"/>
	</g>
	<g>
		<g>
			<path fill="#4A4A4A" d="M72.3,105.7c-1.1,0.6-1.5,2.1-0.9,3.2l9.4,16.3c0.6,1.1,2.1,1.5,3.2,0.9c1.1-0.6,1.5-2.1,0.9-3.2
				l-9.4-16.3C74.8,105.4,73.4,105,72.3,105.7z"/>
		</g>
		<g>
			<path fill="#4A4A4A" d="M43.1,139.3c-0.6,1.1-0.3,2.6,0.9,3.2l16.3,9.4c1.1,0.6,2.6,0.3,3.2-0.9s0.3-2.6-0.9-3.2l-16.3-9.4
				C45.2,137.8,43.8,138.2,43.1,139.3z"/>
		</g>
	</g>
	<g>
		<g>
			<path fill="#4A4A4A" d="M151.8,105.7c1.1,0.6,1.5,2.1,0.9,3.2l-9.4,16.3c-0.6,1.1-2.1,1.5-3.2,0.9c-1.1-0.6-1.5-2.1-0.9-3.2
				l9.4-16.3C149.2,105.4,150.7,105,151.8,105.7z"/>
		</g>
		<g>
			<path fill="#4A4A4A" d="M180.9,139.3c0.6,1.1,0.3,2.6-0.9,3.2l-16.3,9.4c-1.1,0.6-2.6,0.3-3.2-0.9s-0.3-2.6,0.9-3.2l16.3-9.4
				C178.8,137.8,180.3,138.2,180.9,139.3z"/>
		</g>
	</g>
	<path fill="#4A4A4A" d="M100,252.9c0,1.2,1,2.2,2.2,2.2H120c1.2,0,2.2-1,2.2-2.2s-1-2.2-2.2-2.2h-17.9
		C101,250.8,100,251.7,100,252.9z"/>
	<path fill="#4A4A4A" d="M96.3,235.9c0.1,1.2,1.2,2.1,2.4,1.9L124,235c1.2-0.1,2.1-1.2,1.9-2.4c-0.1-1.2-1.2-2.1-2.4-1.9l-25.4,2.9
		C97,233.7,96.1,234.8,96.3,235.9z"/>
	<path fill="#4A4A4A" d="M96.3,245.1c0.1,1.2,1.2,2.1,2.4,1.9l25.4-2.9c1.2-0.1,2.1-1.2,1.9-2.4c-0.1-1.2-1.2-2.1-2.4-1.9l-25.4,2.9
		C97,242.8,96.1,243.9,96.3,245.1z"/>
	<path fill="#4A4A4A" d="M300,238.9c22.2,0,40.1,18,40.1,40.1c0,22.2-18,40.1-40.1,40.1c-22.2,0-40.1-18-40.1-40.1
		C259.9,256.8,277.8,238.9,300,238.9z M304,273.1l20.1,27c4.9-5.6,7.9-13,7.9-21.1c0-16.3-12.2-29.8-28-31.7V273.1z M318.1,305.4
		L304,286.5v24.3C309.2,310.1,314,308.2,318.1,305.4z M296,286.5l-14.1,18.9c4.1,2.8,8.9,4.7,14.1,5.4V286.5z M275.9,300l20.1-27
		v-25.8c-15.8,2-28,15.4-28,31.7C268,287.1,271,294.4,275.9,300z"/>
	<path fill="#4A4A4A" d="M192,171v216h216V171H192z M326.4,197.3c1.9,0,3.4,1.5,3.4,3.4c0,1.9-1.5,3.4-3.4,3.4
		c-1.9,0-3.4-1.5-3.4-3.4C323,198.8,324.5,197.3,326.4,197.3z M310,193.9c0-1.9,1.1-3.4,3-3.4s3,1.5,3,3.4v13.4c0,1.9-1.1,3.4-3,3.4
		s-3-1.5-3-3.4V193.9z M296,187.2c0-1.9,1.6-3.4,3.5-3.4c1.9,0,3.5,1.5,3.5,3.4v26.9c0,1.9-1.6,3.4-3.5,3.4c-1.9,0-3.5-1.5-3.5-3.4
		V187.2z M283,193.9c0-1.9,1.1-3.4,3-3.4c1.9,0,3,1.5,3,3.4v13.4c0,1.9-1.1,3.4-3,3.4c-1.9,0-3-1.5-3-3.4V193.9z M272.6,197.3
		c1.9,0,3.4,1.5,3.4,3.4c0,1.9-1.5,3.4-3.4,3.4s-3.4-1.5-3.4-3.4C269.3,198.8,270.8,197.3,272.6,197.3z M267.1,358h-55.4
		c0,0,0-0.2,0-0.3c0-15.3,12.4-27.7,27.7-27.7s27.7,12.5,27.7,27.7C267.1,357.8,267.1,358,267.1,358z M299.7,330.9
		c-28.6,0-51.9-23.3-51.9-51.9s23.3-51.9,51.9-51.9s51.9,23.3,51.9,51.9S328.4,330.9,299.7,330.9z M366.8,358c-6.2,0-11.9-3-12.1-11
		h6.9c0.1,3,2.4,4.8,5.1,4.8c3,0,5.1-2,5.1-5.4c0-3.1-1.9-5.4-5.3-5.4H366v-6h0.6c3.3,0,4.8-2,4.8-4.6c0-3.2-2.1-4.9-4.6-4.9
		c-2.6,0-4.5,1.5-4.7,4.5h-6.9c0.2-7,5.2-10.7,11.6-10.7c6.7,0,11.5,4.5,11.5,10.9c0,4.1-1.9,6.4-4.4,7.8c2.7,1.4,4.9,4.1,4.9,8.7
		C378.8,354.2,373.3,358,366.8,358z"/>
	<path fill="#4A4A4A" d="M238.6,339.9c-0.4-0.7-1.1-1.3-2-1s-1.1,1.1-1,2c0,0,0.8,7.5,0.9,7.9c0.5,1.6,2.3,2.5,3.9,2s2.5-2.3,2-3.9
		C242.3,346.4,238.6,339.9,238.6,339.9z"/>
</g>
</svg>
